%TF.GenerationSoftware,KiCad,Pcbnew,5.1.10*%
%TF.CreationDate,2021-09-13T14:54:52+02:00*%
%TF.ProjectId,AX5043,41583530-3433-42e6-9b69-6361645f7063,rev?*%
%TF.SameCoordinates,Original*%
%TF.FileFunction,Legend,Top*%
%TF.FilePolarity,Positive*%
%FSLAX46Y46*%
G04 Gerber Fmt 4.6, Leading zero omitted, Abs format (unit mm)*
G04 Created by KiCad (PCBNEW 5.1.10) date 2021-09-13 14:54:52*
%MOMM*%
%LPD*%
G01*
G04 APERTURE LIST*
%TA.AperFunction,Profile*%
%ADD10C,0.050000*%
%TD*%
%ADD11C,0.113792*%
%ADD12C,0.152400*%
%ADD13C,0.127000*%
%ADD14C,0.120000*%
%ADD15C,0.142240*%
%ADD16C,0.150000*%
G04 APERTURE END LIST*
D10*
X127000000Y-110426500D02*
X127000000Y-119000000D01*
X127000000Y-99250500D02*
X127000000Y-91000000D01*
X172000000Y-119000000D02*
X172000000Y-91000000D01*
X130000000Y-122000000D02*
X169000000Y-122000000D01*
X169000000Y-88000000D02*
X130000000Y-88000000D01*
X169000000Y-88000000D02*
G75*
G02*
X172000000Y-91000000I0J-3000000D01*
G01*
X172000000Y-119000000D02*
G75*
G02*
X169000000Y-122000000I-3000000J0D01*
G01*
X130000000Y-122000000D02*
G75*
G02*
X127000000Y-119000000I0J3000000D01*
G01*
X127000000Y-91000000D02*
G75*
G02*
X130000000Y-88000000I3000000J0D01*
G01*
D11*
X157536421Y-109247703D02*
X157536421Y-107896423D01*
X157986848Y-108861623D01*
X158437275Y-107896423D01*
X158437275Y-109247703D01*
X159338128Y-107896423D02*
X159595515Y-107896423D01*
X159724208Y-107960770D01*
X159852901Y-108089463D01*
X159917248Y-108346850D01*
X159917248Y-108797276D01*
X159852901Y-109054663D01*
X159724208Y-109183356D01*
X159595515Y-109247703D01*
X159338128Y-109247703D01*
X159209435Y-109183356D01*
X159080741Y-109054663D01*
X159016395Y-108797276D01*
X159016395Y-108346850D01*
X159080741Y-108089463D01*
X159209435Y-107960770D01*
X159338128Y-107896423D01*
X160432021Y-109183356D02*
X160625061Y-109247703D01*
X160946795Y-109247703D01*
X161075488Y-109183356D01*
X161139835Y-109119010D01*
X161204181Y-108990316D01*
X161204181Y-108861623D01*
X161139835Y-108732930D01*
X161075488Y-108668583D01*
X160946795Y-108604236D01*
X160689408Y-108539890D01*
X160560715Y-108475543D01*
X160496368Y-108411196D01*
X160432021Y-108282503D01*
X160432021Y-108153810D01*
X160496368Y-108025116D01*
X160560715Y-107960770D01*
X160689408Y-107896423D01*
X161011141Y-107896423D01*
X161204181Y-107960770D01*
X161783301Y-109247703D02*
X161783301Y-107896423D01*
X157536421Y-111787703D02*
X157536421Y-110436423D01*
X157986848Y-111401623D01*
X158437275Y-110436423D01*
X158437275Y-111787703D01*
X159080741Y-111787703D02*
X159080741Y-110436423D01*
X159659861Y-111723356D02*
X159852901Y-111787703D01*
X160174635Y-111787703D01*
X160303328Y-111723356D01*
X160367675Y-111659010D01*
X160432021Y-111530316D01*
X160432021Y-111401623D01*
X160367675Y-111272930D01*
X160303328Y-111208583D01*
X160174635Y-111144236D01*
X159917248Y-111079890D01*
X159788555Y-111015543D01*
X159724208Y-110951196D01*
X159659861Y-110822503D01*
X159659861Y-110693810D01*
X159724208Y-110565116D01*
X159788555Y-110500770D01*
X159917248Y-110436423D01*
X160238981Y-110436423D01*
X160432021Y-110500770D01*
X161268528Y-110436423D02*
X161525915Y-110436423D01*
X161654608Y-110500770D01*
X161783301Y-110629463D01*
X161847648Y-110886850D01*
X161847648Y-111337276D01*
X161783301Y-111594663D01*
X161654608Y-111723356D01*
X161525915Y-111787703D01*
X161268528Y-111787703D01*
X161139835Y-111723356D01*
X161011141Y-111594663D01*
X160946795Y-111337276D01*
X160946795Y-110886850D01*
X161011141Y-110629463D01*
X161139835Y-110500770D01*
X161268528Y-110436423D01*
X158372928Y-114263356D02*
X158565968Y-114327703D01*
X158887701Y-114327703D01*
X159016395Y-114263356D01*
X159080741Y-114199010D01*
X159145088Y-114070316D01*
X159145088Y-113941623D01*
X159080741Y-113812930D01*
X159016395Y-113748583D01*
X158887701Y-113684236D01*
X158630315Y-113619890D01*
X158501621Y-113555543D01*
X158437275Y-113491196D01*
X158372928Y-113362503D01*
X158372928Y-113233810D01*
X158437275Y-113105116D01*
X158501621Y-113040770D01*
X158630315Y-112976423D01*
X158952048Y-112976423D01*
X159145088Y-113040770D01*
X160496368Y-114199010D02*
X160432021Y-114263356D01*
X160238981Y-114327703D01*
X160110288Y-114327703D01*
X159917248Y-114263356D01*
X159788555Y-114134663D01*
X159724208Y-114005970D01*
X159659861Y-113748583D01*
X159659861Y-113555543D01*
X159724208Y-113298156D01*
X159788555Y-113169463D01*
X159917248Y-113040770D01*
X160110288Y-112976423D01*
X160238981Y-112976423D01*
X160432021Y-113040770D01*
X160496368Y-113105116D01*
X161075488Y-114327703D02*
X161075488Y-112976423D01*
X161847648Y-114327703D02*
X161268528Y-113555543D01*
X161847648Y-112976423D02*
X161075488Y-113748583D01*
X160560715Y-116739010D02*
X160496368Y-116803356D01*
X160303328Y-116867703D01*
X160174635Y-116867703D01*
X159981595Y-116803356D01*
X159852901Y-116674663D01*
X159788555Y-116545970D01*
X159724208Y-116288583D01*
X159724208Y-116095543D01*
X159788555Y-115838156D01*
X159852901Y-115709463D01*
X159981595Y-115580770D01*
X160174635Y-115516423D01*
X160303328Y-115516423D01*
X160496368Y-115580770D01*
X160560715Y-115645116D01*
X161075488Y-116803356D02*
X161268528Y-116867703D01*
X161590261Y-116867703D01*
X161718955Y-116803356D01*
X161783301Y-116739010D01*
X161847648Y-116610316D01*
X161847648Y-116481623D01*
X161783301Y-116352930D01*
X161718955Y-116288583D01*
X161590261Y-116224236D01*
X161332875Y-116159890D01*
X161204181Y-116095543D01*
X161139835Y-116031196D01*
X161075488Y-115902503D01*
X161075488Y-115773810D01*
X161139835Y-115645116D01*
X161204181Y-115580770D01*
X161332875Y-115516423D01*
X161654608Y-115516423D01*
X161847648Y-115580770D01*
X159016395Y-102880770D02*
X158887701Y-102816423D01*
X158694661Y-102816423D01*
X158501621Y-102880770D01*
X158372928Y-103009463D01*
X158308581Y-103138156D01*
X158244235Y-103395543D01*
X158244235Y-103588583D01*
X158308581Y-103845970D01*
X158372928Y-103974663D01*
X158501621Y-104103356D01*
X158694661Y-104167703D01*
X158823355Y-104167703D01*
X159016395Y-104103356D01*
X159080741Y-104039010D01*
X159080741Y-103588583D01*
X158823355Y-103588583D01*
X159659861Y-104167703D02*
X159659861Y-102816423D01*
X160432021Y-104167703D01*
X160432021Y-102816423D01*
X161075488Y-104167703D02*
X161075488Y-102816423D01*
X161397221Y-102816423D01*
X161590261Y-102880770D01*
X161718955Y-103009463D01*
X161783301Y-103138156D01*
X161847648Y-103395543D01*
X161847648Y-103588583D01*
X161783301Y-103845970D01*
X161718955Y-103974663D01*
X161590261Y-104103356D01*
X161397221Y-104167703D01*
X161075488Y-104167703D01*
X159016395Y-105420770D02*
X158887701Y-105356423D01*
X158694661Y-105356423D01*
X158501621Y-105420770D01*
X158372928Y-105549463D01*
X158308581Y-105678156D01*
X158244235Y-105935543D01*
X158244235Y-106128583D01*
X158308581Y-106385970D01*
X158372928Y-106514663D01*
X158501621Y-106643356D01*
X158694661Y-106707703D01*
X158823355Y-106707703D01*
X159016395Y-106643356D01*
X159080741Y-106579010D01*
X159080741Y-106128583D01*
X158823355Y-106128583D01*
X159659861Y-106707703D02*
X159659861Y-105356423D01*
X160432021Y-106707703D01*
X160432021Y-105356423D01*
X161075488Y-106707703D02*
X161075488Y-105356423D01*
X161397221Y-105356423D01*
X161590261Y-105420770D01*
X161718955Y-105549463D01*
X161783301Y-105678156D01*
X161847648Y-105935543D01*
X161847648Y-106128583D01*
X161783301Y-106385970D01*
X161718955Y-106514663D01*
X161590261Y-106643356D01*
X161397221Y-106707703D01*
X161075488Y-106707703D01*
X158308581Y-101627703D02*
X158308581Y-100276423D01*
X158630315Y-100276423D01*
X158823355Y-100340770D01*
X158952048Y-100469463D01*
X159016395Y-100598156D01*
X159080741Y-100855543D01*
X159080741Y-101048583D01*
X159016395Y-101305970D01*
X158952048Y-101434663D01*
X158823355Y-101563356D01*
X158630315Y-101627703D01*
X158308581Y-101627703D01*
X159659861Y-100919890D02*
X160110288Y-100919890D01*
X160303328Y-101627703D02*
X159659861Y-101627703D01*
X159659861Y-100276423D01*
X160303328Y-100276423D01*
X160882448Y-101627703D02*
X160882448Y-100276423D01*
X161332875Y-101241623D01*
X161783301Y-100276423D01*
X161783301Y-101627703D01*
X155927755Y-99087703D02*
X155927755Y-97736423D01*
X156378181Y-98701623D01*
X156828608Y-97736423D01*
X156828608Y-99087703D01*
X157729461Y-97736423D02*
X157986848Y-97736423D01*
X158115541Y-97800770D01*
X158244235Y-97929463D01*
X158308581Y-98186850D01*
X158308581Y-98637276D01*
X158244235Y-98894663D01*
X158115541Y-99023356D01*
X157986848Y-99087703D01*
X157729461Y-99087703D01*
X157600768Y-99023356D01*
X157472075Y-98894663D01*
X157407728Y-98637276D01*
X157407728Y-98186850D01*
X157472075Y-97929463D01*
X157600768Y-97800770D01*
X157729461Y-97736423D01*
X158887701Y-99087703D02*
X158887701Y-97736423D01*
X159209435Y-97736423D01*
X159402475Y-97800770D01*
X159531168Y-97929463D01*
X159595515Y-98058156D01*
X159659861Y-98315543D01*
X159659861Y-98508583D01*
X159595515Y-98765970D01*
X159531168Y-98894663D01*
X159402475Y-99023356D01*
X159209435Y-99087703D01*
X158887701Y-99087703D01*
X159917248Y-99216396D02*
X160946795Y-99216396D01*
X161204181Y-98701623D02*
X161847648Y-98701623D01*
X161075488Y-99087703D02*
X161525915Y-97736423D01*
X161976341Y-99087703D01*
X155734715Y-96547703D02*
X155734715Y-95196423D01*
X156185141Y-96161623D01*
X156635568Y-95196423D01*
X156635568Y-96547703D01*
X157536421Y-95196423D02*
X157793808Y-95196423D01*
X157922501Y-95260770D01*
X158051195Y-95389463D01*
X158115541Y-95646850D01*
X158115541Y-96097276D01*
X158051195Y-96354663D01*
X157922501Y-96483356D01*
X157793808Y-96547703D01*
X157536421Y-96547703D01*
X157407728Y-96483356D01*
X157279035Y-96354663D01*
X157214688Y-96097276D01*
X157214688Y-95646850D01*
X157279035Y-95389463D01*
X157407728Y-95260770D01*
X157536421Y-95196423D01*
X158694661Y-96547703D02*
X158694661Y-95196423D01*
X159016395Y-95196423D01*
X159209435Y-95260770D01*
X159338128Y-95389463D01*
X159402475Y-95518156D01*
X159466821Y-95775543D01*
X159466821Y-95968583D01*
X159402475Y-96225970D01*
X159338128Y-96354663D01*
X159209435Y-96483356D01*
X159016395Y-96547703D01*
X158694661Y-96547703D01*
X159724208Y-96676396D02*
X160753755Y-96676396D01*
X161525915Y-95839890D02*
X161718955Y-95904236D01*
X161783301Y-95968583D01*
X161847648Y-96097276D01*
X161847648Y-96290316D01*
X161783301Y-96419010D01*
X161718955Y-96483356D01*
X161590261Y-96547703D01*
X161075488Y-96547703D01*
X161075488Y-95196423D01*
X161525915Y-95196423D01*
X161654608Y-95260770D01*
X161718955Y-95325116D01*
X161783301Y-95453810D01*
X161783301Y-95582503D01*
X161718955Y-95711196D01*
X161654608Y-95775543D01*
X161525915Y-95839890D01*
X161075488Y-95839890D01*
X157922501Y-92656423D02*
X158759008Y-92656423D01*
X158308581Y-93171196D01*
X158501621Y-93171196D01*
X158630315Y-93235543D01*
X158694661Y-93299890D01*
X158759008Y-93428583D01*
X158759008Y-93750316D01*
X158694661Y-93879010D01*
X158630315Y-93943356D01*
X158501621Y-94007703D01*
X158115541Y-94007703D01*
X157986848Y-93943356D01*
X157922501Y-93879010D01*
X159338128Y-93879010D02*
X159402475Y-93943356D01*
X159338128Y-94007703D01*
X159273781Y-93943356D01*
X159338128Y-93879010D01*
X159338128Y-94007703D01*
X159852901Y-92656423D02*
X160689408Y-92656423D01*
X160238981Y-93171196D01*
X160432021Y-93171196D01*
X160560715Y-93235543D01*
X160625061Y-93299890D01*
X160689408Y-93428583D01*
X160689408Y-93750316D01*
X160625061Y-93879010D01*
X160560715Y-93943356D01*
X160432021Y-94007703D01*
X160045941Y-94007703D01*
X159917248Y-93943356D01*
X159852901Y-93879010D01*
X161075488Y-92656423D02*
X161525915Y-94007703D01*
X161976341Y-92656423D01*
X134331351Y-117408861D02*
X134974818Y-117408861D01*
X134202658Y-117794941D02*
X134653084Y-116443661D01*
X135103511Y-117794941D01*
X135425244Y-116443661D02*
X136326098Y-117794941D01*
X136326098Y-116443661D02*
X135425244Y-117794941D01*
X137484338Y-116443661D02*
X136840871Y-116443661D01*
X136776524Y-117087128D01*
X136840871Y-117022781D01*
X136969564Y-116958434D01*
X137291298Y-116958434D01*
X137419991Y-117022781D01*
X137484338Y-117087128D01*
X137548684Y-117215821D01*
X137548684Y-117537554D01*
X137484338Y-117666248D01*
X137419991Y-117730594D01*
X137291298Y-117794941D01*
X136969564Y-117794941D01*
X136840871Y-117730594D01*
X136776524Y-117666248D01*
X138385191Y-116443661D02*
X138513884Y-116443661D01*
X138642578Y-116508008D01*
X138706924Y-116572354D01*
X138771271Y-116701048D01*
X138835618Y-116958434D01*
X138835618Y-117280168D01*
X138771271Y-117537554D01*
X138706924Y-117666248D01*
X138642578Y-117730594D01*
X138513884Y-117794941D01*
X138385191Y-117794941D01*
X138256498Y-117730594D01*
X138192151Y-117666248D01*
X138127804Y-117537554D01*
X138063458Y-117280168D01*
X138063458Y-116958434D01*
X138127804Y-116701048D01*
X138192151Y-116572354D01*
X138256498Y-116508008D01*
X138385191Y-116443661D01*
X139993858Y-116894088D02*
X139993858Y-117794941D01*
X139672124Y-116379314D02*
X139350391Y-117344514D01*
X140186898Y-117344514D01*
X140572978Y-116443661D02*
X141409484Y-116443661D01*
X140959058Y-116958434D01*
X141152098Y-116958434D01*
X141280791Y-117022781D01*
X141345138Y-117087128D01*
X141409484Y-117215821D01*
X141409484Y-117537554D01*
X141345138Y-117666248D01*
X141280791Y-117730594D01*
X141152098Y-117794941D01*
X140766018Y-117794941D01*
X140637324Y-117730594D01*
X140572978Y-117666248D01*
X143018151Y-117087128D02*
X143468578Y-117087128D01*
X143661618Y-117794941D02*
X143018151Y-117794941D01*
X143018151Y-116443661D01*
X143661618Y-116443661D01*
X144047698Y-116443661D02*
X144498124Y-117794941D01*
X144948551Y-116443661D01*
X145334631Y-117408861D02*
X145978098Y-117408861D01*
X145205938Y-117794941D02*
X145656364Y-116443661D01*
X146106791Y-117794941D01*
X147200684Y-117794941D02*
X146557218Y-117794941D01*
X146557218Y-116443661D01*
X149131084Y-117087128D02*
X149324124Y-117151474D01*
X149388471Y-117215821D01*
X149452818Y-117344514D01*
X149452818Y-117537554D01*
X149388471Y-117666248D01*
X149324124Y-117730594D01*
X149195431Y-117794941D01*
X148680658Y-117794941D01*
X148680658Y-116443661D01*
X149131084Y-116443661D01*
X149259778Y-116508008D01*
X149324124Y-116572354D01*
X149388471Y-116701048D01*
X149388471Y-116829741D01*
X149324124Y-116958434D01*
X149259778Y-117022781D01*
X149131084Y-117087128D01*
X148680658Y-117087128D01*
X150289324Y-116443661D02*
X150546711Y-116443661D01*
X150675404Y-116508008D01*
X150804098Y-116636701D01*
X150868444Y-116894088D01*
X150868444Y-117344514D01*
X150804098Y-117601901D01*
X150675404Y-117730594D01*
X150546711Y-117794941D01*
X150289324Y-117794941D01*
X150160631Y-117730594D01*
X150031938Y-117601901D01*
X149967591Y-117344514D01*
X149967591Y-116894088D01*
X150031938Y-116636701D01*
X150160631Y-116508008D01*
X150289324Y-116443661D01*
X151383218Y-117408861D02*
X152026684Y-117408861D01*
X151254524Y-117794941D02*
X151704951Y-116443661D01*
X152155378Y-117794941D01*
X153377964Y-117794941D02*
X152927538Y-117151474D01*
X152605804Y-117794941D02*
X152605804Y-116443661D01*
X153120578Y-116443661D01*
X153249271Y-116508008D01*
X153313618Y-116572354D01*
X153377964Y-116701048D01*
X153377964Y-116894088D01*
X153313618Y-117022781D01*
X153249271Y-117087128D01*
X153120578Y-117151474D01*
X152605804Y-117151474D01*
X153957084Y-117794941D02*
X153957084Y-116443661D01*
X154278818Y-116443661D01*
X154471858Y-116508008D01*
X154600551Y-116636701D01*
X154664898Y-116765394D01*
X154729244Y-117022781D01*
X154729244Y-117215821D01*
X154664898Y-117473208D01*
X154600551Y-117601901D01*
X154471858Y-117730594D01*
X154278818Y-117794941D01*
X153957084Y-117794941D01*
X134331351Y-119871306D02*
X134524391Y-119935653D01*
X134846124Y-119935653D01*
X134974818Y-119871306D01*
X135039164Y-119806960D01*
X135103511Y-119678266D01*
X135103511Y-119549573D01*
X135039164Y-119420880D01*
X134974818Y-119356533D01*
X134846124Y-119292186D01*
X134588738Y-119227840D01*
X134460044Y-119163493D01*
X134395698Y-119099146D01*
X134331351Y-118970453D01*
X134331351Y-118841760D01*
X134395698Y-118713066D01*
X134460044Y-118648720D01*
X134588738Y-118584373D01*
X134910471Y-118584373D01*
X135103511Y-118648720D01*
X135682631Y-119935653D02*
X135682631Y-118584373D01*
X136197404Y-118584373D01*
X136326098Y-118648720D01*
X136390444Y-118713066D01*
X136454791Y-118841760D01*
X136454791Y-119034800D01*
X136390444Y-119163493D01*
X136326098Y-119227840D01*
X136197404Y-119292186D01*
X135682631Y-119292186D01*
X137677378Y-118584373D02*
X137033911Y-118584373D01*
X136969564Y-119227840D01*
X137033911Y-119163493D01*
X137162604Y-119099146D01*
X137484338Y-119099146D01*
X137613031Y-119163493D01*
X137677378Y-119227840D01*
X137741724Y-119356533D01*
X137741724Y-119678266D01*
X137677378Y-119806960D01*
X137613031Y-119871306D01*
X137484338Y-119935653D01*
X137162604Y-119935653D01*
X137033911Y-119871306D01*
X136969564Y-119806960D01*
X138192151Y-118584373D02*
X138513884Y-119935653D01*
X138771271Y-118970453D01*
X139028658Y-119935653D01*
X139350391Y-118584373D01*
X139736471Y-118584373D02*
X140058204Y-119935653D01*
X140315591Y-118970453D01*
X140572978Y-119935653D01*
X140894711Y-118584373D01*
X141409484Y-119935653D02*
X141409484Y-118584373D01*
X141924258Y-118584373D01*
X142052951Y-118648720D01*
X142117298Y-118713066D01*
X142181644Y-118841760D01*
X142181644Y-119034800D01*
X142117298Y-119163493D01*
X142052951Y-119227840D01*
X141924258Y-119292186D01*
X141409484Y-119292186D01*
X142825111Y-119871306D02*
X142825111Y-119935653D01*
X142760764Y-120064346D01*
X142696418Y-120128693D01*
X144433778Y-119935653D02*
X144433778Y-118584373D01*
X145077244Y-118584373D02*
X145077244Y-119678266D01*
X145141591Y-119806960D01*
X145205938Y-119871306D01*
X145334631Y-119935653D01*
X145592018Y-119935653D01*
X145720711Y-119871306D01*
X145785058Y-119806960D01*
X145849404Y-119678266D01*
X145849404Y-118584373D01*
X146428524Y-118713066D02*
X146492871Y-118648720D01*
X146621564Y-118584373D01*
X146943298Y-118584373D01*
X147071991Y-118648720D01*
X147136338Y-118713066D01*
X147200684Y-118841760D01*
X147200684Y-118970453D01*
X147136338Y-119163493D01*
X146364178Y-119935653D01*
X147200684Y-119935653D01*
X147779804Y-119935653D02*
X147779804Y-118584373D01*
X148551964Y-119935653D02*
X147972844Y-119163493D01*
X148551964Y-118584373D02*
X147779804Y-119356533D01*
X149002391Y-118584373D02*
X149324124Y-119935653D01*
X149581511Y-118970453D01*
X149838898Y-119935653D01*
X150160631Y-118584373D01*
X150932791Y-118584373D02*
X151190178Y-118584373D01*
X151318871Y-118648720D01*
X151447564Y-118777413D01*
X151511911Y-119034800D01*
X151511911Y-119485226D01*
X151447564Y-119742613D01*
X151318871Y-119871306D01*
X151190178Y-119935653D01*
X150932791Y-119935653D01*
X150804098Y-119871306D01*
X150675404Y-119742613D01*
X150611058Y-119485226D01*
X150611058Y-119034800D01*
X150675404Y-118777413D01*
X150804098Y-118648720D01*
X150932791Y-118584373D01*
X153635351Y-119871306D02*
X153506658Y-119935653D01*
X153249271Y-119935653D01*
X153120578Y-119871306D01*
X153056231Y-119742613D01*
X153056231Y-119227840D01*
X153120578Y-119099146D01*
X153249271Y-119034800D01*
X153506658Y-119034800D01*
X153635351Y-119099146D01*
X153699698Y-119227840D01*
X153699698Y-119356533D01*
X153056231Y-119485226D01*
X154085778Y-119034800D02*
X154600551Y-119034800D01*
X154278818Y-118584373D02*
X154278818Y-119742613D01*
X154343164Y-119871306D01*
X154471858Y-119935653D01*
X154600551Y-119935653D01*
X156659644Y-119935653D02*
X156659644Y-119227840D01*
X156595298Y-119099146D01*
X156466604Y-119034800D01*
X156209218Y-119034800D01*
X156080524Y-119099146D01*
X156659644Y-119871306D02*
X156530951Y-119935653D01*
X156209218Y-119935653D01*
X156080524Y-119871306D01*
X156016178Y-119742613D01*
X156016178Y-119613920D01*
X156080524Y-119485226D01*
X156209218Y-119420880D01*
X156530951Y-119420880D01*
X156659644Y-119356533D01*
X157496151Y-119935653D02*
X157367458Y-119871306D01*
X157303111Y-119742613D01*
X157303111Y-118584373D01*
X158010924Y-119806960D02*
X158075271Y-119871306D01*
X158010924Y-119935653D01*
X157946578Y-119871306D01*
X158010924Y-119806960D01*
X158010924Y-119935653D01*
X134635698Y-90506933D02*
X134635698Y-89155653D01*
X135086124Y-90120853D01*
X135536551Y-89155653D01*
X135536551Y-90506933D01*
X136887831Y-90506933D02*
X136115671Y-90506933D01*
X136501751Y-90506933D02*
X136501751Y-89155653D01*
X136373058Y-89348693D01*
X136244364Y-89477386D01*
X136115671Y-89541733D01*
X137338258Y-89155653D02*
X138239111Y-89155653D01*
X137659991Y-90506933D01*
X139719084Y-89091306D02*
X138560844Y-90828666D01*
X140426898Y-89155653D02*
X140684284Y-89155653D01*
X140812978Y-89220000D01*
X140941671Y-89348693D01*
X141006018Y-89606080D01*
X141006018Y-90056506D01*
X140941671Y-90313893D01*
X140812978Y-90442586D01*
X140684284Y-90506933D01*
X140426898Y-90506933D01*
X140298204Y-90442586D01*
X140169511Y-90313893D01*
X140105164Y-90056506D01*
X140105164Y-89606080D01*
X140169511Y-89348693D01*
X140298204Y-89220000D01*
X140426898Y-89155653D01*
X141585138Y-89606080D02*
X141585138Y-90957360D01*
X141585138Y-89670426D02*
X141713831Y-89606080D01*
X141971218Y-89606080D01*
X142099911Y-89670426D01*
X142164258Y-89734773D01*
X142228604Y-89863466D01*
X142228604Y-90249546D01*
X142164258Y-90378240D01*
X142099911Y-90442586D01*
X141971218Y-90506933D01*
X141713831Y-90506933D01*
X141585138Y-90442586D01*
X143322498Y-90442586D02*
X143193804Y-90506933D01*
X142936418Y-90506933D01*
X142807724Y-90442586D01*
X142743378Y-90313893D01*
X142743378Y-89799120D01*
X142807724Y-89670426D01*
X142936418Y-89606080D01*
X143193804Y-89606080D01*
X143322498Y-89670426D01*
X143386844Y-89799120D01*
X143386844Y-89927813D01*
X142743378Y-90056506D01*
X143965964Y-89606080D02*
X143965964Y-90506933D01*
X143965964Y-89734773D02*
X144030311Y-89670426D01*
X144159004Y-89606080D01*
X144352044Y-89606080D01*
X144480738Y-89670426D01*
X144545084Y-89799120D01*
X144545084Y-90506933D01*
X145960711Y-90506933D02*
X145510284Y-89863466D01*
X145188551Y-90506933D02*
X145188551Y-89155653D01*
X145703324Y-89155653D01*
X145832018Y-89220000D01*
X145896364Y-89284346D01*
X145960711Y-89413040D01*
X145960711Y-89606080D01*
X145896364Y-89734773D01*
X145832018Y-89799120D01*
X145703324Y-89863466D01*
X145188551Y-89863466D01*
X146346791Y-89155653D02*
X147118951Y-89155653D01*
X146732871Y-90506933D02*
X146732871Y-89155653D01*
X147440684Y-89155653D02*
X148341538Y-90506933D01*
X148341538Y-89155653D02*
X147440684Y-90506933D01*
X149821511Y-89284346D02*
X149885858Y-89220000D01*
X150014551Y-89155653D01*
X150336284Y-89155653D01*
X150464978Y-89220000D01*
X150529324Y-89284346D01*
X150593671Y-89413040D01*
X150593671Y-89541733D01*
X150529324Y-89734773D01*
X149757164Y-90506933D01*
X150593671Y-90506933D01*
X151430178Y-89155653D02*
X151558871Y-89155653D01*
X151687564Y-89220000D01*
X151751911Y-89284346D01*
X151816258Y-89413040D01*
X151880604Y-89670426D01*
X151880604Y-89992160D01*
X151816258Y-90249546D01*
X151751911Y-90378240D01*
X151687564Y-90442586D01*
X151558871Y-90506933D01*
X151430178Y-90506933D01*
X151301484Y-90442586D01*
X151237138Y-90378240D01*
X151172791Y-90249546D01*
X151108444Y-89992160D01*
X151108444Y-89670426D01*
X151172791Y-89413040D01*
X151237138Y-89284346D01*
X151301484Y-89220000D01*
X151430178Y-89155653D01*
X152395378Y-89284346D02*
X152459724Y-89220000D01*
X152588418Y-89155653D01*
X152910151Y-89155653D01*
X153038844Y-89220000D01*
X153103191Y-89284346D01*
X153167538Y-89413040D01*
X153167538Y-89541733D01*
X153103191Y-89734773D01*
X152331031Y-90506933D01*
X153167538Y-90506933D01*
X154454471Y-90506933D02*
X153682311Y-90506933D01*
X154068391Y-90506933D02*
X154068391Y-89155653D01*
X153939698Y-89348693D01*
X153811004Y-89477386D01*
X153682311Y-89541733D01*
X155934444Y-89606080D02*
X156256178Y-90506933D01*
X156577911Y-89606080D01*
X157800498Y-90506933D02*
X157028338Y-90506933D01*
X157414418Y-90506933D02*
X157414418Y-89155653D01*
X157285724Y-89348693D01*
X157157031Y-89477386D01*
X157028338Y-89541733D01*
X158379618Y-90378240D02*
X158443964Y-90442586D01*
X158379618Y-90506933D01*
X158315271Y-90442586D01*
X158379618Y-90378240D01*
X158379618Y-90506933D01*
X159280471Y-89155653D02*
X159409164Y-89155653D01*
X159537858Y-89220000D01*
X159602204Y-89284346D01*
X159666551Y-89413040D01*
X159730898Y-89670426D01*
X159730898Y-89992160D01*
X159666551Y-90249546D01*
X159602204Y-90378240D01*
X159537858Y-90442586D01*
X159409164Y-90506933D01*
X159280471Y-90506933D01*
X159151778Y-90442586D01*
X159087431Y-90378240D01*
X159023084Y-90249546D01*
X158958738Y-89992160D01*
X158958738Y-89670426D01*
X159023084Y-89413040D01*
X159087431Y-89284346D01*
X159151778Y-89220000D01*
X159280471Y-89155653D01*
X135086124Y-91939832D02*
X135279164Y-92004178D01*
X135343511Y-92068525D01*
X135407858Y-92197218D01*
X135407858Y-92390258D01*
X135343511Y-92518952D01*
X135279164Y-92583298D01*
X135150471Y-92647645D01*
X134635698Y-92647645D01*
X134635698Y-91296365D01*
X135086124Y-91296365D01*
X135214818Y-91360712D01*
X135279164Y-91425058D01*
X135343511Y-91553752D01*
X135343511Y-91682445D01*
X135279164Y-91811138D01*
X135214818Y-91875485D01*
X135086124Y-91939832D01*
X134635698Y-91939832D01*
X135922631Y-92261565D02*
X136566098Y-92261565D01*
X135793938Y-92647645D02*
X136244364Y-91296365D01*
X136694791Y-92647645D01*
X137145218Y-92647645D02*
X137145218Y-91296365D01*
X137917378Y-92647645D01*
X137917378Y-91296365D01*
X138560844Y-92647645D02*
X138560844Y-91296365D01*
X138882578Y-91296365D01*
X139075618Y-91360712D01*
X139204311Y-91489405D01*
X139268658Y-91618098D01*
X139333004Y-91875485D01*
X139333004Y-92068525D01*
X139268658Y-92325912D01*
X139204311Y-92454605D01*
X139075618Y-92583298D01*
X138882578Y-92647645D01*
X138560844Y-92647645D01*
X140941671Y-91296365D02*
X140941671Y-92390258D01*
X141006018Y-92518952D01*
X141070364Y-92583298D01*
X141199058Y-92647645D01*
X141456444Y-92647645D01*
X141585138Y-92583298D01*
X141649484Y-92518952D01*
X141713831Y-92390258D01*
X141713831Y-91296365D01*
X142357298Y-92647645D02*
X142357298Y-91296365D01*
X142357298Y-91939832D02*
X143129458Y-91939832D01*
X143129458Y-92647645D02*
X143129458Y-91296365D01*
X144223351Y-91939832D02*
X143772924Y-91939832D01*
X143772924Y-92647645D02*
X143772924Y-91296365D01*
X144416391Y-91296365D01*
X145317244Y-93098072D02*
X144995511Y-93098072D01*
X144995511Y-91167672D01*
X145317244Y-91167672D01*
X146732871Y-93098072D02*
X147054604Y-93098072D01*
X147054604Y-91167672D01*
X146732871Y-91167672D01*
X148598924Y-91296365D02*
X149049351Y-92647645D01*
X149499778Y-91296365D01*
X149950204Y-92647645D02*
X149950204Y-91296365D01*
X149950204Y-91939832D02*
X150722364Y-91939832D01*
X150722364Y-92647645D02*
X150722364Y-91296365D01*
X151816258Y-91939832D02*
X151365831Y-91939832D01*
X151365831Y-92647645D02*
X151365831Y-91296365D01*
X152009298Y-91296365D01*
X152910151Y-93098072D02*
X152588418Y-93098072D01*
X152588418Y-91167672D01*
X152910151Y-91167672D01*
X154325778Y-93098072D02*
X154647511Y-93098072D01*
X154647511Y-91167672D01*
X154325778Y-91167672D01*
D12*
X162814000Y-116903500D02*
X162814000Y-115633500D01*
X163449000Y-114998500D02*
X162814000Y-115633500D01*
X165354000Y-115633500D02*
X164719000Y-114998500D01*
X163449000Y-117538500D02*
X162814000Y-116903500D01*
X164719000Y-117538500D02*
X163449000Y-117538500D01*
X165354000Y-116903500D02*
X164719000Y-117538500D01*
X165354000Y-115633500D02*
X165354000Y-116903500D01*
X162814000Y-94043500D02*
X162814000Y-92773500D01*
X163449000Y-92138500D02*
X162814000Y-92773500D01*
X165354000Y-92773500D02*
X164719000Y-92138500D01*
X164719000Y-92138500D02*
X163449000Y-92138500D01*
X162814000Y-95313500D02*
X163449000Y-94678500D01*
X162814000Y-96583500D02*
X162814000Y-95313500D01*
X163449000Y-97218500D02*
X162814000Y-96583500D01*
X164719000Y-97218500D02*
X163449000Y-97218500D01*
X165354000Y-96583500D02*
X164719000Y-97218500D01*
X165354000Y-95313500D02*
X165354000Y-96583500D01*
X164719000Y-94678500D02*
X165354000Y-95313500D01*
X163449000Y-94678500D02*
X162814000Y-94043500D01*
X164719000Y-94678500D02*
X163449000Y-94678500D01*
X165354000Y-94043500D02*
X164719000Y-94678500D01*
X165354000Y-92773500D02*
X165354000Y-94043500D01*
X162814000Y-101663500D02*
X162814000Y-100393500D01*
X163449000Y-99758500D02*
X162814000Y-100393500D01*
X165354000Y-100393500D02*
X164719000Y-99758500D01*
X162814000Y-97853500D02*
X163449000Y-97218500D01*
X162814000Y-99123500D02*
X162814000Y-97853500D01*
X163449000Y-99758500D02*
X162814000Y-99123500D01*
X164719000Y-99758500D02*
X163449000Y-99758500D01*
X165354000Y-99123500D02*
X164719000Y-99758500D01*
X165354000Y-97853500D02*
X165354000Y-99123500D01*
X164719000Y-97218500D02*
X165354000Y-97853500D01*
X162814000Y-102933500D02*
X163449000Y-102298500D01*
X162814000Y-104203500D02*
X162814000Y-102933500D01*
X163449000Y-104838500D02*
X162814000Y-104203500D01*
X164719000Y-104838500D02*
X163449000Y-104838500D01*
X165354000Y-104203500D02*
X164719000Y-104838500D01*
X165354000Y-102933500D02*
X165354000Y-104203500D01*
X164719000Y-102298500D02*
X165354000Y-102933500D01*
X163449000Y-102298500D02*
X162814000Y-101663500D01*
X164719000Y-102298500D02*
X163449000Y-102298500D01*
X165354000Y-101663500D02*
X164719000Y-102298500D01*
X165354000Y-100393500D02*
X165354000Y-101663500D01*
X162814000Y-109283500D02*
X162814000Y-108013500D01*
X163449000Y-107378500D02*
X162814000Y-108013500D01*
X165354000Y-108013500D02*
X164719000Y-107378500D01*
X162814000Y-105473500D02*
X163449000Y-104838500D01*
X162814000Y-106743500D02*
X162814000Y-105473500D01*
X163449000Y-107378500D02*
X162814000Y-106743500D01*
X164719000Y-107378500D02*
X163449000Y-107378500D01*
X165354000Y-106743500D02*
X164719000Y-107378500D01*
X165354000Y-105473500D02*
X165354000Y-106743500D01*
X164719000Y-104838500D02*
X165354000Y-105473500D01*
X162814000Y-110553500D02*
X163449000Y-109918500D01*
X162814000Y-111823500D02*
X162814000Y-110553500D01*
X163449000Y-112458500D02*
X162814000Y-111823500D01*
X164719000Y-112458500D02*
X163449000Y-112458500D01*
X165354000Y-111823500D02*
X164719000Y-112458500D01*
X165354000Y-110553500D02*
X165354000Y-111823500D01*
X164719000Y-109918500D02*
X165354000Y-110553500D01*
X163449000Y-109918500D02*
X162814000Y-109283500D01*
X164719000Y-109918500D02*
X163449000Y-109918500D01*
X165354000Y-109283500D02*
X164719000Y-109918500D01*
X165354000Y-108013500D02*
X165354000Y-109283500D01*
X162814000Y-113093500D02*
X163449000Y-112458500D01*
X162814000Y-114363500D02*
X162814000Y-113093500D01*
X163449000Y-114998500D02*
X162814000Y-114363500D01*
X164719000Y-114998500D02*
X163449000Y-114998500D01*
X165354000Y-114363500D02*
X164719000Y-114998500D01*
X165354000Y-113093500D02*
X165354000Y-114363500D01*
X164719000Y-112458500D02*
X165354000Y-113093500D01*
D13*
X148063600Y-102166100D02*
G75*
G03*
X148063600Y-102166100I-250000J0D01*
G01*
X148313600Y-103176100D02*
X148813600Y-102676100D01*
X153313600Y-102676100D02*
X153313600Y-103176100D01*
X152813600Y-102676100D02*
X153313600Y-102676100D01*
X153313600Y-107676100D02*
X153313600Y-107176100D01*
X152813600Y-107676100D02*
X153313600Y-107676100D01*
X148313600Y-107676100D02*
X148813600Y-107676100D01*
X148313600Y-107176100D02*
X148313600Y-107676100D01*
D10*
X127000000Y-99250500D02*
X127000000Y-110426500D01*
D14*
X141998606Y-100510000D02*
G75*
G03*
X141998606Y-100510000I-111803J0D01*
G01*
X141936803Y-100510000D02*
G75*
G03*
X141936803Y-100510000I-50000J0D01*
G01*
X143225000Y-100060000D02*
X142575000Y-100060000D01*
X143225000Y-98060000D02*
X142575000Y-98060000D01*
X141625000Y-99260000D02*
X141625000Y-98910000D01*
X144125000Y-99260000D02*
X144125000Y-98910000D01*
D15*
X127968756Y-96718966D02*
X129094822Y-98408066D01*
X129094822Y-96718966D02*
X127968756Y-98408066D01*
X129657856Y-96879833D02*
X129738289Y-96799400D01*
X129899156Y-96718966D01*
X130301322Y-96718966D01*
X130462189Y-96799400D01*
X130542622Y-96879833D01*
X130623056Y-97040700D01*
X130623056Y-97201566D01*
X130542622Y-97442866D01*
X129577422Y-98408066D01*
X130623056Y-98408066D01*
D16*
X140041380Y-99869523D02*
X141041380Y-99202857D01*
X140041380Y-99202857D02*
X141041380Y-99869523D01*
X141041380Y-98298095D02*
X141041380Y-98869523D01*
X141041380Y-98583809D02*
X140041380Y-98583809D01*
X140184238Y-98679047D01*
X140279476Y-98774285D01*
X140327095Y-98869523D01*
M02*
