G04 #@! TF.GenerationSoftware,KiCad,Pcbnew,5.1.10*
G04 #@! TF.CreationDate,2021-09-13T21:13:45+02:00*
G04 #@! TF.ProjectId,AX5043,41583530-3433-42e6-9b69-6361645f7063,rev?*
G04 #@! TF.SameCoordinates,Original*
G04 #@! TF.FileFunction,Legend,Top*
G04 #@! TF.FilePolarity,Positive*
%FSLAX46Y46*%
G04 Gerber Fmt 4.6, Leading zero omitted, Abs format (unit mm)*
G04 Created by KiCad (PCBNEW 5.1.10) date 2021-09-13 21:13:45*
%MOMM*%
%LPD*%
G01*
G04 APERTURE LIST*
%ADD10C,0.113792*%
%ADD11C,0.152400*%
%ADD12C,0.127000*%
%ADD13C,0.120000*%
%ADD14C,0.142240*%
%ADD15C,0.150000*%
%ADD16C,2.700000*%
%ADD17O,3.251200X1.727200*%
%ADD18R,0.900000X0.800000*%
G04 APERTURE END LIST*
D10*
X157536421Y-109247703D02*
X157536421Y-107896423D01*
X157986848Y-108861623D01*
X158437275Y-107896423D01*
X158437275Y-109247703D01*
X159338128Y-107896423D02*
X159595515Y-107896423D01*
X159724208Y-107960770D01*
X159852901Y-108089463D01*
X159917248Y-108346850D01*
X159917248Y-108797276D01*
X159852901Y-109054663D01*
X159724208Y-109183356D01*
X159595515Y-109247703D01*
X159338128Y-109247703D01*
X159209435Y-109183356D01*
X159080741Y-109054663D01*
X159016395Y-108797276D01*
X159016395Y-108346850D01*
X159080741Y-108089463D01*
X159209435Y-107960770D01*
X159338128Y-107896423D01*
X160432021Y-109183356D02*
X160625061Y-109247703D01*
X160946795Y-109247703D01*
X161075488Y-109183356D01*
X161139835Y-109119010D01*
X161204181Y-108990316D01*
X161204181Y-108861623D01*
X161139835Y-108732930D01*
X161075488Y-108668583D01*
X160946795Y-108604236D01*
X160689408Y-108539890D01*
X160560715Y-108475543D01*
X160496368Y-108411196D01*
X160432021Y-108282503D01*
X160432021Y-108153810D01*
X160496368Y-108025116D01*
X160560715Y-107960770D01*
X160689408Y-107896423D01*
X161011141Y-107896423D01*
X161204181Y-107960770D01*
X161783301Y-109247703D02*
X161783301Y-107896423D01*
X157536421Y-111787703D02*
X157536421Y-110436423D01*
X157986848Y-111401623D01*
X158437275Y-110436423D01*
X158437275Y-111787703D01*
X159080741Y-111787703D02*
X159080741Y-110436423D01*
X159659861Y-111723356D02*
X159852901Y-111787703D01*
X160174635Y-111787703D01*
X160303328Y-111723356D01*
X160367675Y-111659010D01*
X160432021Y-111530316D01*
X160432021Y-111401623D01*
X160367675Y-111272930D01*
X160303328Y-111208583D01*
X160174635Y-111144236D01*
X159917248Y-111079890D01*
X159788555Y-111015543D01*
X159724208Y-110951196D01*
X159659861Y-110822503D01*
X159659861Y-110693810D01*
X159724208Y-110565116D01*
X159788555Y-110500770D01*
X159917248Y-110436423D01*
X160238981Y-110436423D01*
X160432021Y-110500770D01*
X161268528Y-110436423D02*
X161525915Y-110436423D01*
X161654608Y-110500770D01*
X161783301Y-110629463D01*
X161847648Y-110886850D01*
X161847648Y-111337276D01*
X161783301Y-111594663D01*
X161654608Y-111723356D01*
X161525915Y-111787703D01*
X161268528Y-111787703D01*
X161139835Y-111723356D01*
X161011141Y-111594663D01*
X160946795Y-111337276D01*
X160946795Y-110886850D01*
X161011141Y-110629463D01*
X161139835Y-110500770D01*
X161268528Y-110436423D01*
X158372928Y-114263356D02*
X158565968Y-114327703D01*
X158887701Y-114327703D01*
X159016395Y-114263356D01*
X159080741Y-114199010D01*
X159145088Y-114070316D01*
X159145088Y-113941623D01*
X159080741Y-113812930D01*
X159016395Y-113748583D01*
X158887701Y-113684236D01*
X158630315Y-113619890D01*
X158501621Y-113555543D01*
X158437275Y-113491196D01*
X158372928Y-113362503D01*
X158372928Y-113233810D01*
X158437275Y-113105116D01*
X158501621Y-113040770D01*
X158630315Y-112976423D01*
X158952048Y-112976423D01*
X159145088Y-113040770D01*
X160496368Y-114199010D02*
X160432021Y-114263356D01*
X160238981Y-114327703D01*
X160110288Y-114327703D01*
X159917248Y-114263356D01*
X159788555Y-114134663D01*
X159724208Y-114005970D01*
X159659861Y-113748583D01*
X159659861Y-113555543D01*
X159724208Y-113298156D01*
X159788555Y-113169463D01*
X159917248Y-113040770D01*
X160110288Y-112976423D01*
X160238981Y-112976423D01*
X160432021Y-113040770D01*
X160496368Y-113105116D01*
X161075488Y-114327703D02*
X161075488Y-112976423D01*
X161847648Y-114327703D02*
X161268528Y-113555543D01*
X161847648Y-112976423D02*
X161075488Y-113748583D01*
X160560715Y-116739010D02*
X160496368Y-116803356D01*
X160303328Y-116867703D01*
X160174635Y-116867703D01*
X159981595Y-116803356D01*
X159852901Y-116674663D01*
X159788555Y-116545970D01*
X159724208Y-116288583D01*
X159724208Y-116095543D01*
X159788555Y-115838156D01*
X159852901Y-115709463D01*
X159981595Y-115580770D01*
X160174635Y-115516423D01*
X160303328Y-115516423D01*
X160496368Y-115580770D01*
X160560715Y-115645116D01*
X161075488Y-116803356D02*
X161268528Y-116867703D01*
X161590261Y-116867703D01*
X161718955Y-116803356D01*
X161783301Y-116739010D01*
X161847648Y-116610316D01*
X161847648Y-116481623D01*
X161783301Y-116352930D01*
X161718955Y-116288583D01*
X161590261Y-116224236D01*
X161332875Y-116159890D01*
X161204181Y-116095543D01*
X161139835Y-116031196D01*
X161075488Y-115902503D01*
X161075488Y-115773810D01*
X161139835Y-115645116D01*
X161204181Y-115580770D01*
X161332875Y-115516423D01*
X161654608Y-115516423D01*
X161847648Y-115580770D01*
X159016395Y-102880770D02*
X158887701Y-102816423D01*
X158694661Y-102816423D01*
X158501621Y-102880770D01*
X158372928Y-103009463D01*
X158308581Y-103138156D01*
X158244235Y-103395543D01*
X158244235Y-103588583D01*
X158308581Y-103845970D01*
X158372928Y-103974663D01*
X158501621Y-104103356D01*
X158694661Y-104167703D01*
X158823355Y-104167703D01*
X159016395Y-104103356D01*
X159080741Y-104039010D01*
X159080741Y-103588583D01*
X158823355Y-103588583D01*
X159659861Y-104167703D02*
X159659861Y-102816423D01*
X160432021Y-104167703D01*
X160432021Y-102816423D01*
X161075488Y-104167703D02*
X161075488Y-102816423D01*
X161397221Y-102816423D01*
X161590261Y-102880770D01*
X161718955Y-103009463D01*
X161783301Y-103138156D01*
X161847648Y-103395543D01*
X161847648Y-103588583D01*
X161783301Y-103845970D01*
X161718955Y-103974663D01*
X161590261Y-104103356D01*
X161397221Y-104167703D01*
X161075488Y-104167703D01*
X159016395Y-105420770D02*
X158887701Y-105356423D01*
X158694661Y-105356423D01*
X158501621Y-105420770D01*
X158372928Y-105549463D01*
X158308581Y-105678156D01*
X158244235Y-105935543D01*
X158244235Y-106128583D01*
X158308581Y-106385970D01*
X158372928Y-106514663D01*
X158501621Y-106643356D01*
X158694661Y-106707703D01*
X158823355Y-106707703D01*
X159016395Y-106643356D01*
X159080741Y-106579010D01*
X159080741Y-106128583D01*
X158823355Y-106128583D01*
X159659861Y-106707703D02*
X159659861Y-105356423D01*
X160432021Y-106707703D01*
X160432021Y-105356423D01*
X161075488Y-106707703D02*
X161075488Y-105356423D01*
X161397221Y-105356423D01*
X161590261Y-105420770D01*
X161718955Y-105549463D01*
X161783301Y-105678156D01*
X161847648Y-105935543D01*
X161847648Y-106128583D01*
X161783301Y-106385970D01*
X161718955Y-106514663D01*
X161590261Y-106643356D01*
X161397221Y-106707703D01*
X161075488Y-106707703D01*
X158308581Y-101627703D02*
X158308581Y-100276423D01*
X158630315Y-100276423D01*
X158823355Y-100340770D01*
X158952048Y-100469463D01*
X159016395Y-100598156D01*
X159080741Y-100855543D01*
X159080741Y-101048583D01*
X159016395Y-101305970D01*
X158952048Y-101434663D01*
X158823355Y-101563356D01*
X158630315Y-101627703D01*
X158308581Y-101627703D01*
X159659861Y-100919890D02*
X160110288Y-100919890D01*
X160303328Y-101627703D02*
X159659861Y-101627703D01*
X159659861Y-100276423D01*
X160303328Y-100276423D01*
X160882448Y-101627703D02*
X160882448Y-100276423D01*
X161332875Y-101241623D01*
X161783301Y-100276423D01*
X161783301Y-101627703D01*
X155927755Y-99087703D02*
X155927755Y-97736423D01*
X156378181Y-98701623D01*
X156828608Y-97736423D01*
X156828608Y-99087703D01*
X157729461Y-97736423D02*
X157986848Y-97736423D01*
X158115541Y-97800770D01*
X158244235Y-97929463D01*
X158308581Y-98186850D01*
X158308581Y-98637276D01*
X158244235Y-98894663D01*
X158115541Y-99023356D01*
X157986848Y-99087703D01*
X157729461Y-99087703D01*
X157600768Y-99023356D01*
X157472075Y-98894663D01*
X157407728Y-98637276D01*
X157407728Y-98186850D01*
X157472075Y-97929463D01*
X157600768Y-97800770D01*
X157729461Y-97736423D01*
X158887701Y-99087703D02*
X158887701Y-97736423D01*
X159209435Y-97736423D01*
X159402475Y-97800770D01*
X159531168Y-97929463D01*
X159595515Y-98058156D01*
X159659861Y-98315543D01*
X159659861Y-98508583D01*
X159595515Y-98765970D01*
X159531168Y-98894663D01*
X159402475Y-99023356D01*
X159209435Y-99087703D01*
X158887701Y-99087703D01*
X159917248Y-99216396D02*
X160946795Y-99216396D01*
X161204181Y-98701623D02*
X161847648Y-98701623D01*
X161075488Y-99087703D02*
X161525915Y-97736423D01*
X161976341Y-99087703D01*
X155734715Y-96547703D02*
X155734715Y-95196423D01*
X156185141Y-96161623D01*
X156635568Y-95196423D01*
X156635568Y-96547703D01*
X157536421Y-95196423D02*
X157793808Y-95196423D01*
X157922501Y-95260770D01*
X158051195Y-95389463D01*
X158115541Y-95646850D01*
X158115541Y-96097276D01*
X158051195Y-96354663D01*
X157922501Y-96483356D01*
X157793808Y-96547703D01*
X157536421Y-96547703D01*
X157407728Y-96483356D01*
X157279035Y-96354663D01*
X157214688Y-96097276D01*
X157214688Y-95646850D01*
X157279035Y-95389463D01*
X157407728Y-95260770D01*
X157536421Y-95196423D01*
X158694661Y-96547703D02*
X158694661Y-95196423D01*
X159016395Y-95196423D01*
X159209435Y-95260770D01*
X159338128Y-95389463D01*
X159402475Y-95518156D01*
X159466821Y-95775543D01*
X159466821Y-95968583D01*
X159402475Y-96225970D01*
X159338128Y-96354663D01*
X159209435Y-96483356D01*
X159016395Y-96547703D01*
X158694661Y-96547703D01*
X159724208Y-96676396D02*
X160753755Y-96676396D01*
X161525915Y-95839890D02*
X161718955Y-95904236D01*
X161783301Y-95968583D01*
X161847648Y-96097276D01*
X161847648Y-96290316D01*
X161783301Y-96419010D01*
X161718955Y-96483356D01*
X161590261Y-96547703D01*
X161075488Y-96547703D01*
X161075488Y-95196423D01*
X161525915Y-95196423D01*
X161654608Y-95260770D01*
X161718955Y-95325116D01*
X161783301Y-95453810D01*
X161783301Y-95582503D01*
X161718955Y-95711196D01*
X161654608Y-95775543D01*
X161525915Y-95839890D01*
X161075488Y-95839890D01*
X157922501Y-92656423D02*
X158759008Y-92656423D01*
X158308581Y-93171196D01*
X158501621Y-93171196D01*
X158630315Y-93235543D01*
X158694661Y-93299890D01*
X158759008Y-93428583D01*
X158759008Y-93750316D01*
X158694661Y-93879010D01*
X158630315Y-93943356D01*
X158501621Y-94007703D01*
X158115541Y-94007703D01*
X157986848Y-93943356D01*
X157922501Y-93879010D01*
X159338128Y-93879010D02*
X159402475Y-93943356D01*
X159338128Y-94007703D01*
X159273781Y-93943356D01*
X159338128Y-93879010D01*
X159338128Y-94007703D01*
X159852901Y-92656423D02*
X160689408Y-92656423D01*
X160238981Y-93171196D01*
X160432021Y-93171196D01*
X160560715Y-93235543D01*
X160625061Y-93299890D01*
X160689408Y-93428583D01*
X160689408Y-93750316D01*
X160625061Y-93879010D01*
X160560715Y-93943356D01*
X160432021Y-94007703D01*
X160045941Y-94007703D01*
X159917248Y-93943356D01*
X159852901Y-93879010D01*
X161075488Y-92656423D02*
X161525915Y-94007703D01*
X161976341Y-92656423D01*
X134331351Y-117408861D02*
X134974818Y-117408861D01*
X134202658Y-117794941D02*
X134653084Y-116443661D01*
X135103511Y-117794941D01*
X135425244Y-116443661D02*
X136326098Y-117794941D01*
X136326098Y-116443661D02*
X135425244Y-117794941D01*
X137484338Y-116443661D02*
X136840871Y-116443661D01*
X136776524Y-117087128D01*
X136840871Y-117022781D01*
X136969564Y-116958434D01*
X137291298Y-116958434D01*
X137419991Y-117022781D01*
X137484338Y-117087128D01*
X137548684Y-117215821D01*
X137548684Y-117537554D01*
X137484338Y-117666248D01*
X137419991Y-117730594D01*
X137291298Y-117794941D01*
X136969564Y-117794941D01*
X136840871Y-117730594D01*
X136776524Y-117666248D01*
X138385191Y-116443661D02*
X138513884Y-116443661D01*
X138642578Y-116508008D01*
X138706924Y-116572354D01*
X138771271Y-116701048D01*
X138835618Y-116958434D01*
X138835618Y-117280168D01*
X138771271Y-117537554D01*
X138706924Y-117666248D01*
X138642578Y-117730594D01*
X138513884Y-117794941D01*
X138385191Y-117794941D01*
X138256498Y-117730594D01*
X138192151Y-117666248D01*
X138127804Y-117537554D01*
X138063458Y-117280168D01*
X138063458Y-116958434D01*
X138127804Y-116701048D01*
X138192151Y-116572354D01*
X138256498Y-116508008D01*
X138385191Y-116443661D01*
X139993858Y-116894088D02*
X139993858Y-117794941D01*
X139672124Y-116379314D02*
X139350391Y-117344514D01*
X140186898Y-117344514D01*
X140572978Y-116443661D02*
X141409484Y-116443661D01*
X140959058Y-116958434D01*
X141152098Y-116958434D01*
X141280791Y-117022781D01*
X141345138Y-117087128D01*
X141409484Y-117215821D01*
X141409484Y-117537554D01*
X141345138Y-117666248D01*
X141280791Y-117730594D01*
X141152098Y-117794941D01*
X140766018Y-117794941D01*
X140637324Y-117730594D01*
X140572978Y-117666248D01*
X143018151Y-117087128D02*
X143468578Y-117087128D01*
X143661618Y-117794941D02*
X143018151Y-117794941D01*
X143018151Y-116443661D01*
X143661618Y-116443661D01*
X144047698Y-116443661D02*
X144498124Y-117794941D01*
X144948551Y-116443661D01*
X145334631Y-117408861D02*
X145978098Y-117408861D01*
X145205938Y-117794941D02*
X145656364Y-116443661D01*
X146106791Y-117794941D01*
X147200684Y-117794941D02*
X146557218Y-117794941D01*
X146557218Y-116443661D01*
X149131084Y-117087128D02*
X149324124Y-117151474D01*
X149388471Y-117215821D01*
X149452818Y-117344514D01*
X149452818Y-117537554D01*
X149388471Y-117666248D01*
X149324124Y-117730594D01*
X149195431Y-117794941D01*
X148680658Y-117794941D01*
X148680658Y-116443661D01*
X149131084Y-116443661D01*
X149259778Y-116508008D01*
X149324124Y-116572354D01*
X149388471Y-116701048D01*
X149388471Y-116829741D01*
X149324124Y-116958434D01*
X149259778Y-117022781D01*
X149131084Y-117087128D01*
X148680658Y-117087128D01*
X150289324Y-116443661D02*
X150546711Y-116443661D01*
X150675404Y-116508008D01*
X150804098Y-116636701D01*
X150868444Y-116894088D01*
X150868444Y-117344514D01*
X150804098Y-117601901D01*
X150675404Y-117730594D01*
X150546711Y-117794941D01*
X150289324Y-117794941D01*
X150160631Y-117730594D01*
X150031938Y-117601901D01*
X149967591Y-117344514D01*
X149967591Y-116894088D01*
X150031938Y-116636701D01*
X150160631Y-116508008D01*
X150289324Y-116443661D01*
X151383218Y-117408861D02*
X152026684Y-117408861D01*
X151254524Y-117794941D02*
X151704951Y-116443661D01*
X152155378Y-117794941D01*
X153377964Y-117794941D02*
X152927538Y-117151474D01*
X152605804Y-117794941D02*
X152605804Y-116443661D01*
X153120578Y-116443661D01*
X153249271Y-116508008D01*
X153313618Y-116572354D01*
X153377964Y-116701048D01*
X153377964Y-116894088D01*
X153313618Y-117022781D01*
X153249271Y-117087128D01*
X153120578Y-117151474D01*
X152605804Y-117151474D01*
X153957084Y-117794941D02*
X153957084Y-116443661D01*
X154278818Y-116443661D01*
X154471858Y-116508008D01*
X154600551Y-116636701D01*
X154664898Y-116765394D01*
X154729244Y-117022781D01*
X154729244Y-117215821D01*
X154664898Y-117473208D01*
X154600551Y-117601901D01*
X154471858Y-117730594D01*
X154278818Y-117794941D01*
X153957084Y-117794941D01*
X134331351Y-119871306D02*
X134524391Y-119935653D01*
X134846124Y-119935653D01*
X134974818Y-119871306D01*
X135039164Y-119806960D01*
X135103511Y-119678266D01*
X135103511Y-119549573D01*
X135039164Y-119420880D01*
X134974818Y-119356533D01*
X134846124Y-119292186D01*
X134588738Y-119227840D01*
X134460044Y-119163493D01*
X134395698Y-119099146D01*
X134331351Y-118970453D01*
X134331351Y-118841760D01*
X134395698Y-118713066D01*
X134460044Y-118648720D01*
X134588738Y-118584373D01*
X134910471Y-118584373D01*
X135103511Y-118648720D01*
X135682631Y-119935653D02*
X135682631Y-118584373D01*
X136197404Y-118584373D01*
X136326098Y-118648720D01*
X136390444Y-118713066D01*
X136454791Y-118841760D01*
X136454791Y-119034800D01*
X136390444Y-119163493D01*
X136326098Y-119227840D01*
X136197404Y-119292186D01*
X135682631Y-119292186D01*
X137677378Y-118584373D02*
X137033911Y-118584373D01*
X136969564Y-119227840D01*
X137033911Y-119163493D01*
X137162604Y-119099146D01*
X137484338Y-119099146D01*
X137613031Y-119163493D01*
X137677378Y-119227840D01*
X137741724Y-119356533D01*
X137741724Y-119678266D01*
X137677378Y-119806960D01*
X137613031Y-119871306D01*
X137484338Y-119935653D01*
X137162604Y-119935653D01*
X137033911Y-119871306D01*
X136969564Y-119806960D01*
X138192151Y-118584373D02*
X138513884Y-119935653D01*
X138771271Y-118970453D01*
X139028658Y-119935653D01*
X139350391Y-118584373D01*
X139736471Y-118584373D02*
X140058204Y-119935653D01*
X140315591Y-118970453D01*
X140572978Y-119935653D01*
X140894711Y-118584373D01*
X141409484Y-119935653D02*
X141409484Y-118584373D01*
X141924258Y-118584373D01*
X142052951Y-118648720D01*
X142117298Y-118713066D01*
X142181644Y-118841760D01*
X142181644Y-119034800D01*
X142117298Y-119163493D01*
X142052951Y-119227840D01*
X141924258Y-119292186D01*
X141409484Y-119292186D01*
X142825111Y-119871306D02*
X142825111Y-119935653D01*
X142760764Y-120064346D01*
X142696418Y-120128693D01*
X144433778Y-119935653D02*
X144433778Y-118584373D01*
X145077244Y-118584373D02*
X145077244Y-119678266D01*
X145141591Y-119806960D01*
X145205938Y-119871306D01*
X145334631Y-119935653D01*
X145592018Y-119935653D01*
X145720711Y-119871306D01*
X145785058Y-119806960D01*
X145849404Y-119678266D01*
X145849404Y-118584373D01*
X146428524Y-118713066D02*
X146492871Y-118648720D01*
X146621564Y-118584373D01*
X146943298Y-118584373D01*
X147071991Y-118648720D01*
X147136338Y-118713066D01*
X147200684Y-118841760D01*
X147200684Y-118970453D01*
X147136338Y-119163493D01*
X146364178Y-119935653D01*
X147200684Y-119935653D01*
X147779804Y-119935653D02*
X147779804Y-118584373D01*
X148551964Y-119935653D02*
X147972844Y-119163493D01*
X148551964Y-118584373D02*
X147779804Y-119356533D01*
X149002391Y-118584373D02*
X149324124Y-119935653D01*
X149581511Y-118970453D01*
X149838898Y-119935653D01*
X150160631Y-118584373D01*
X150932791Y-118584373D02*
X151190178Y-118584373D01*
X151318871Y-118648720D01*
X151447564Y-118777413D01*
X151511911Y-119034800D01*
X151511911Y-119485226D01*
X151447564Y-119742613D01*
X151318871Y-119871306D01*
X151190178Y-119935653D01*
X150932791Y-119935653D01*
X150804098Y-119871306D01*
X150675404Y-119742613D01*
X150611058Y-119485226D01*
X150611058Y-119034800D01*
X150675404Y-118777413D01*
X150804098Y-118648720D01*
X150932791Y-118584373D01*
X153635351Y-119871306D02*
X153506658Y-119935653D01*
X153249271Y-119935653D01*
X153120578Y-119871306D01*
X153056231Y-119742613D01*
X153056231Y-119227840D01*
X153120578Y-119099146D01*
X153249271Y-119034800D01*
X153506658Y-119034800D01*
X153635351Y-119099146D01*
X153699698Y-119227840D01*
X153699698Y-119356533D01*
X153056231Y-119485226D01*
X154085778Y-119034800D02*
X154600551Y-119034800D01*
X154278818Y-118584373D02*
X154278818Y-119742613D01*
X154343164Y-119871306D01*
X154471858Y-119935653D01*
X154600551Y-119935653D01*
X156659644Y-119935653D02*
X156659644Y-119227840D01*
X156595298Y-119099146D01*
X156466604Y-119034800D01*
X156209218Y-119034800D01*
X156080524Y-119099146D01*
X156659644Y-119871306D02*
X156530951Y-119935653D01*
X156209218Y-119935653D01*
X156080524Y-119871306D01*
X156016178Y-119742613D01*
X156016178Y-119613920D01*
X156080524Y-119485226D01*
X156209218Y-119420880D01*
X156530951Y-119420880D01*
X156659644Y-119356533D01*
X157496151Y-119935653D02*
X157367458Y-119871306D01*
X157303111Y-119742613D01*
X157303111Y-118584373D01*
X158010924Y-119806960D02*
X158075271Y-119871306D01*
X158010924Y-119935653D01*
X157946578Y-119871306D01*
X158010924Y-119806960D01*
X158010924Y-119935653D01*
X134635698Y-90506933D02*
X134635698Y-89155653D01*
X135086124Y-90120853D01*
X135536551Y-89155653D01*
X135536551Y-90506933D01*
X136887831Y-90506933D02*
X136115671Y-90506933D01*
X136501751Y-90506933D02*
X136501751Y-89155653D01*
X136373058Y-89348693D01*
X136244364Y-89477386D01*
X136115671Y-89541733D01*
X137338258Y-89155653D02*
X138239111Y-89155653D01*
X137659991Y-90506933D01*
X139719084Y-89091306D02*
X138560844Y-90828666D01*
X140426898Y-89155653D02*
X140684284Y-89155653D01*
X140812978Y-89220000D01*
X140941671Y-89348693D01*
X141006018Y-89606080D01*
X141006018Y-90056506D01*
X140941671Y-90313893D01*
X140812978Y-90442586D01*
X140684284Y-90506933D01*
X140426898Y-90506933D01*
X140298204Y-90442586D01*
X140169511Y-90313893D01*
X140105164Y-90056506D01*
X140105164Y-89606080D01*
X140169511Y-89348693D01*
X140298204Y-89220000D01*
X140426898Y-89155653D01*
X141585138Y-89606080D02*
X141585138Y-90957360D01*
X141585138Y-89670426D02*
X141713831Y-89606080D01*
X141971218Y-89606080D01*
X142099911Y-89670426D01*
X142164258Y-89734773D01*
X142228604Y-89863466D01*
X142228604Y-90249546D01*
X142164258Y-90378240D01*
X142099911Y-90442586D01*
X141971218Y-90506933D01*
X141713831Y-90506933D01*
X141585138Y-90442586D01*
X143322498Y-90442586D02*
X143193804Y-90506933D01*
X142936418Y-90506933D01*
X142807724Y-90442586D01*
X142743378Y-90313893D01*
X142743378Y-89799120D01*
X142807724Y-89670426D01*
X142936418Y-89606080D01*
X143193804Y-89606080D01*
X143322498Y-89670426D01*
X143386844Y-89799120D01*
X143386844Y-89927813D01*
X142743378Y-90056506D01*
X143965964Y-89606080D02*
X143965964Y-90506933D01*
X143965964Y-89734773D02*
X144030311Y-89670426D01*
X144159004Y-89606080D01*
X144352044Y-89606080D01*
X144480738Y-89670426D01*
X144545084Y-89799120D01*
X144545084Y-90506933D01*
X145960711Y-90506933D02*
X145510284Y-89863466D01*
X145188551Y-90506933D02*
X145188551Y-89155653D01*
X145703324Y-89155653D01*
X145832018Y-89220000D01*
X145896364Y-89284346D01*
X145960711Y-89413040D01*
X145960711Y-89606080D01*
X145896364Y-89734773D01*
X145832018Y-89799120D01*
X145703324Y-89863466D01*
X145188551Y-89863466D01*
X146346791Y-89155653D02*
X147118951Y-89155653D01*
X146732871Y-90506933D02*
X146732871Y-89155653D01*
X147440684Y-89155653D02*
X148341538Y-90506933D01*
X148341538Y-89155653D02*
X147440684Y-90506933D01*
X149821511Y-89284346D02*
X149885858Y-89220000D01*
X150014551Y-89155653D01*
X150336284Y-89155653D01*
X150464978Y-89220000D01*
X150529324Y-89284346D01*
X150593671Y-89413040D01*
X150593671Y-89541733D01*
X150529324Y-89734773D01*
X149757164Y-90506933D01*
X150593671Y-90506933D01*
X151430178Y-89155653D02*
X151558871Y-89155653D01*
X151687564Y-89220000D01*
X151751911Y-89284346D01*
X151816258Y-89413040D01*
X151880604Y-89670426D01*
X151880604Y-89992160D01*
X151816258Y-90249546D01*
X151751911Y-90378240D01*
X151687564Y-90442586D01*
X151558871Y-90506933D01*
X151430178Y-90506933D01*
X151301484Y-90442586D01*
X151237138Y-90378240D01*
X151172791Y-90249546D01*
X151108444Y-89992160D01*
X151108444Y-89670426D01*
X151172791Y-89413040D01*
X151237138Y-89284346D01*
X151301484Y-89220000D01*
X151430178Y-89155653D01*
X152395378Y-89284346D02*
X152459724Y-89220000D01*
X152588418Y-89155653D01*
X152910151Y-89155653D01*
X153038844Y-89220000D01*
X153103191Y-89284346D01*
X153167538Y-89413040D01*
X153167538Y-89541733D01*
X153103191Y-89734773D01*
X152331031Y-90506933D01*
X153167538Y-90506933D01*
X154454471Y-90506933D02*
X153682311Y-90506933D01*
X154068391Y-90506933D02*
X154068391Y-89155653D01*
X153939698Y-89348693D01*
X153811004Y-89477386D01*
X153682311Y-89541733D01*
X155934444Y-89606080D02*
X156256178Y-90506933D01*
X156577911Y-89606080D01*
X157800498Y-90506933D02*
X157028338Y-90506933D01*
X157414418Y-90506933D02*
X157414418Y-89155653D01*
X157285724Y-89348693D01*
X157157031Y-89477386D01*
X157028338Y-89541733D01*
X158379618Y-90378240D02*
X158443964Y-90442586D01*
X158379618Y-90506933D01*
X158315271Y-90442586D01*
X158379618Y-90378240D01*
X158379618Y-90506933D01*
X159280471Y-89155653D02*
X159409164Y-89155653D01*
X159537858Y-89220000D01*
X159602204Y-89284346D01*
X159666551Y-89413040D01*
X159730898Y-89670426D01*
X159730898Y-89992160D01*
X159666551Y-90249546D01*
X159602204Y-90378240D01*
X159537858Y-90442586D01*
X159409164Y-90506933D01*
X159280471Y-90506933D01*
X159151778Y-90442586D01*
X159087431Y-90378240D01*
X159023084Y-90249546D01*
X158958738Y-89992160D01*
X158958738Y-89670426D01*
X159023084Y-89413040D01*
X159087431Y-89284346D01*
X159151778Y-89220000D01*
X159280471Y-89155653D01*
X135086124Y-91939832D02*
X135279164Y-92004178D01*
X135343511Y-92068525D01*
X135407858Y-92197218D01*
X135407858Y-92390258D01*
X135343511Y-92518952D01*
X135279164Y-92583298D01*
X135150471Y-92647645D01*
X134635698Y-92647645D01*
X134635698Y-91296365D01*
X135086124Y-91296365D01*
X135214818Y-91360712D01*
X135279164Y-91425058D01*
X135343511Y-91553752D01*
X135343511Y-91682445D01*
X135279164Y-91811138D01*
X135214818Y-91875485D01*
X135086124Y-91939832D01*
X134635698Y-91939832D01*
X135922631Y-92261565D02*
X136566098Y-92261565D01*
X135793938Y-92647645D02*
X136244364Y-91296365D01*
X136694791Y-92647645D01*
X137145218Y-92647645D02*
X137145218Y-91296365D01*
X137917378Y-92647645D01*
X137917378Y-91296365D01*
X138560844Y-92647645D02*
X138560844Y-91296365D01*
X138882578Y-91296365D01*
X139075618Y-91360712D01*
X139204311Y-91489405D01*
X139268658Y-91618098D01*
X139333004Y-91875485D01*
X139333004Y-92068525D01*
X139268658Y-92325912D01*
X139204311Y-92454605D01*
X139075618Y-92583298D01*
X138882578Y-92647645D01*
X138560844Y-92647645D01*
X140941671Y-91296365D02*
X140941671Y-92390258D01*
X141006018Y-92518952D01*
X141070364Y-92583298D01*
X141199058Y-92647645D01*
X141456444Y-92647645D01*
X141585138Y-92583298D01*
X141649484Y-92518952D01*
X141713831Y-92390258D01*
X141713831Y-91296365D01*
X142357298Y-92647645D02*
X142357298Y-91296365D01*
X142357298Y-91939832D02*
X143129458Y-91939832D01*
X143129458Y-92647645D02*
X143129458Y-91296365D01*
X144223351Y-91939832D02*
X143772924Y-91939832D01*
X143772924Y-92647645D02*
X143772924Y-91296365D01*
X144416391Y-91296365D01*
X145317244Y-93098072D02*
X144995511Y-93098072D01*
X144995511Y-91167672D01*
X145317244Y-91167672D01*
X146732871Y-93098072D02*
X147054604Y-93098072D01*
X147054604Y-91167672D01*
X146732871Y-91167672D01*
X148598924Y-91296365D02*
X149049351Y-92647645D01*
X149499778Y-91296365D01*
X149950204Y-92647645D02*
X149950204Y-91296365D01*
X149950204Y-91939832D02*
X150722364Y-91939832D01*
X150722364Y-92647645D02*
X150722364Y-91296365D01*
X151816258Y-91939832D02*
X151365831Y-91939832D01*
X151365831Y-92647645D02*
X151365831Y-91296365D01*
X152009298Y-91296365D01*
X152910151Y-93098072D02*
X152588418Y-93098072D01*
X152588418Y-91167672D01*
X152910151Y-91167672D01*
X154325778Y-93098072D02*
X154647511Y-93098072D01*
X154647511Y-91167672D01*
X154325778Y-91167672D01*
D11*
X162814000Y-116903500D02*
X162814000Y-115633500D01*
X163449000Y-114998500D02*
X162814000Y-115633500D01*
X165354000Y-115633500D02*
X164719000Y-114998500D01*
X163449000Y-117538500D02*
X162814000Y-116903500D01*
X164719000Y-117538500D02*
X163449000Y-117538500D01*
X165354000Y-116903500D02*
X164719000Y-117538500D01*
X165354000Y-115633500D02*
X165354000Y-116903500D01*
X162814000Y-94043500D02*
X162814000Y-92773500D01*
X163449000Y-92138500D02*
X162814000Y-92773500D01*
X165354000Y-92773500D02*
X164719000Y-92138500D01*
X164719000Y-92138500D02*
X163449000Y-92138500D01*
X162814000Y-95313500D02*
X163449000Y-94678500D01*
X162814000Y-96583500D02*
X162814000Y-95313500D01*
X163449000Y-97218500D02*
X162814000Y-96583500D01*
X164719000Y-97218500D02*
X163449000Y-97218500D01*
X165354000Y-96583500D02*
X164719000Y-97218500D01*
X165354000Y-95313500D02*
X165354000Y-96583500D01*
X164719000Y-94678500D02*
X165354000Y-95313500D01*
X163449000Y-94678500D02*
X162814000Y-94043500D01*
X164719000Y-94678500D02*
X163449000Y-94678500D01*
X165354000Y-94043500D02*
X164719000Y-94678500D01*
X165354000Y-92773500D02*
X165354000Y-94043500D01*
X162814000Y-101663500D02*
X162814000Y-100393500D01*
X163449000Y-99758500D02*
X162814000Y-100393500D01*
X165354000Y-100393500D02*
X164719000Y-99758500D01*
X162814000Y-97853500D02*
X163449000Y-97218500D01*
X162814000Y-99123500D02*
X162814000Y-97853500D01*
X163449000Y-99758500D02*
X162814000Y-99123500D01*
X164719000Y-99758500D02*
X163449000Y-99758500D01*
X165354000Y-99123500D02*
X164719000Y-99758500D01*
X165354000Y-97853500D02*
X165354000Y-99123500D01*
X164719000Y-97218500D02*
X165354000Y-97853500D01*
X162814000Y-102933500D02*
X163449000Y-102298500D01*
X162814000Y-104203500D02*
X162814000Y-102933500D01*
X163449000Y-104838500D02*
X162814000Y-104203500D01*
X164719000Y-104838500D02*
X163449000Y-104838500D01*
X165354000Y-104203500D02*
X164719000Y-104838500D01*
X165354000Y-102933500D02*
X165354000Y-104203500D01*
X164719000Y-102298500D02*
X165354000Y-102933500D01*
X163449000Y-102298500D02*
X162814000Y-101663500D01*
X164719000Y-102298500D02*
X163449000Y-102298500D01*
X165354000Y-101663500D02*
X164719000Y-102298500D01*
X165354000Y-100393500D02*
X165354000Y-101663500D01*
X162814000Y-109283500D02*
X162814000Y-108013500D01*
X163449000Y-107378500D02*
X162814000Y-108013500D01*
X165354000Y-108013500D02*
X164719000Y-107378500D01*
X162814000Y-105473500D02*
X163449000Y-104838500D01*
X162814000Y-106743500D02*
X162814000Y-105473500D01*
X163449000Y-107378500D02*
X162814000Y-106743500D01*
X164719000Y-107378500D02*
X163449000Y-107378500D01*
X165354000Y-106743500D02*
X164719000Y-107378500D01*
X165354000Y-105473500D02*
X165354000Y-106743500D01*
X164719000Y-104838500D02*
X165354000Y-105473500D01*
X162814000Y-110553500D02*
X163449000Y-109918500D01*
X162814000Y-111823500D02*
X162814000Y-110553500D01*
X163449000Y-112458500D02*
X162814000Y-111823500D01*
X164719000Y-112458500D02*
X163449000Y-112458500D01*
X165354000Y-111823500D02*
X164719000Y-112458500D01*
X165354000Y-110553500D02*
X165354000Y-111823500D01*
X164719000Y-109918500D02*
X165354000Y-110553500D01*
X163449000Y-109918500D02*
X162814000Y-109283500D01*
X164719000Y-109918500D02*
X163449000Y-109918500D01*
X165354000Y-109283500D02*
X164719000Y-109918500D01*
X165354000Y-108013500D02*
X165354000Y-109283500D01*
X162814000Y-113093500D02*
X163449000Y-112458500D01*
X162814000Y-114363500D02*
X162814000Y-113093500D01*
X163449000Y-114998500D02*
X162814000Y-114363500D01*
X164719000Y-114998500D02*
X163449000Y-114998500D01*
X165354000Y-114363500D02*
X164719000Y-114998500D01*
X165354000Y-113093500D02*
X165354000Y-114363500D01*
X164719000Y-112458500D02*
X165354000Y-113093500D01*
D12*
X148063600Y-102166100D02*
G75*
G03*
X148063600Y-102166100I-250000J0D01*
G01*
X148313600Y-103176100D02*
X148813600Y-102676100D01*
X153313600Y-102676100D02*
X153313600Y-103176100D01*
X152813600Y-102676100D02*
X153313600Y-102676100D01*
X153313600Y-107676100D02*
X153313600Y-107176100D01*
X152813600Y-107676100D02*
X153313600Y-107676100D01*
X148313600Y-107676100D02*
X148813600Y-107676100D01*
X148313600Y-107176100D02*
X148313600Y-107676100D01*
D13*
X141998606Y-100510000D02*
G75*
G03*
X141998606Y-100510000I-111803J0D01*
G01*
X141936803Y-100510000D02*
G75*
G03*
X141936803Y-100510000I-50000J0D01*
G01*
X143225000Y-100060000D02*
X142575000Y-100060000D01*
X143225000Y-98060000D02*
X142575000Y-98060000D01*
X141625000Y-99260000D02*
X141625000Y-98910000D01*
X144125000Y-99260000D02*
X144125000Y-98910000D01*
D14*
X127968756Y-96718966D02*
X129094822Y-98408066D01*
X129094822Y-96718966D02*
X127968756Y-98408066D01*
X129657856Y-96879833D02*
X129738289Y-96799400D01*
X129899156Y-96718966D01*
X130301322Y-96718966D01*
X130462189Y-96799400D01*
X130542622Y-96879833D01*
X130623056Y-97040700D01*
X130623056Y-97201566D01*
X130542622Y-97442866D01*
X129577422Y-98408066D01*
X130623056Y-98408066D01*
D15*
X140041380Y-99869523D02*
X141041380Y-99202857D01*
X140041380Y-99202857D02*
X141041380Y-99869523D01*
X141041380Y-98298095D02*
X141041380Y-98869523D01*
X141041380Y-98583809D02*
X140041380Y-98583809D01*
X140184238Y-98679047D01*
X140279476Y-98774285D01*
X140327095Y-98869523D01*
%LPC*%
D16*
X169000000Y-119000000D03*
X169000000Y-91000000D03*
X130000000Y-119000000D03*
X130000000Y-91000000D03*
G36*
G01*
X145868599Y-99342000D02*
X146868601Y-99342000D01*
G75*
G02*
X146970200Y-99443599I0J-101599D01*
G01*
X146970200Y-100543601D01*
G75*
G02*
X146868601Y-100645200I-101599J0D01*
G01*
X145868599Y-100645200D01*
G75*
G02*
X145767000Y-100543601I0J101599D01*
G01*
X145767000Y-99443599D01*
G75*
G02*
X145868599Y-99342000I101599J0D01*
G01*
G37*
G36*
G01*
X145868599Y-97642000D02*
X146868601Y-97642000D01*
G75*
G02*
X146970200Y-97743599I0J-101599D01*
G01*
X146970200Y-98843601D01*
G75*
G02*
X146868601Y-98945200I-101599J0D01*
G01*
X145868599Y-98945200D01*
G75*
G02*
X145767000Y-98843601I0J101599D01*
G01*
X145767000Y-97743599D01*
G75*
G02*
X145868599Y-97642000I101599J0D01*
G01*
G37*
G36*
G01*
X149091101Y-98945200D02*
X148091099Y-98945200D01*
G75*
G02*
X147989500Y-98843601I0J101599D01*
G01*
X147989500Y-97743599D01*
G75*
G02*
X148091099Y-97642000I101599J0D01*
G01*
X149091101Y-97642000D01*
G75*
G02*
X149192700Y-97743599I0J-101599D01*
G01*
X149192700Y-98843601D01*
G75*
G02*
X149091101Y-98945200I-101599J0D01*
G01*
G37*
G36*
G01*
X149091101Y-100645200D02*
X148091099Y-100645200D01*
G75*
G02*
X147989500Y-100543601I0J101599D01*
G01*
X147989500Y-99443599D01*
G75*
G02*
X148091099Y-99342000I101599J0D01*
G01*
X149091101Y-99342000D01*
G75*
G02*
X149192700Y-99443599I0J-101599D01*
G01*
X149192700Y-100543601D01*
G75*
G02*
X149091101Y-100645200I-101599J0D01*
G01*
G37*
G36*
G01*
X146868601Y-102437700D02*
X145868599Y-102437700D01*
G75*
G02*
X145767000Y-102336101I0J101599D01*
G01*
X145767000Y-101236099D01*
G75*
G02*
X145868599Y-101134500I101599J0D01*
G01*
X146868601Y-101134500D01*
G75*
G02*
X146970200Y-101236099I0J-101599D01*
G01*
X146970200Y-102336101D01*
G75*
G02*
X146868601Y-102437700I-101599J0D01*
G01*
G37*
G36*
G01*
X146868601Y-104137700D02*
X145868599Y-104137700D01*
G75*
G02*
X145767000Y-104036101I0J101599D01*
G01*
X145767000Y-102936099D01*
G75*
G02*
X145868599Y-102834500I101599J0D01*
G01*
X146868601Y-102834500D01*
G75*
G02*
X146970200Y-102936099I0J-101599D01*
G01*
X146970200Y-104036101D01*
G75*
G02*
X146868601Y-104137700I-101599J0D01*
G01*
G37*
G36*
G01*
X145868599Y-107279500D02*
X146868601Y-107279500D01*
G75*
G02*
X146970200Y-107381099I0J-101599D01*
G01*
X146970200Y-108481101D01*
G75*
G02*
X146868601Y-108582700I-101599J0D01*
G01*
X145868599Y-108582700D01*
G75*
G02*
X145767000Y-108481101I0J101599D01*
G01*
X145767000Y-107381099D01*
G75*
G02*
X145868599Y-107279500I101599J0D01*
G01*
G37*
G36*
G01*
X145868599Y-105579500D02*
X146868601Y-105579500D01*
G75*
G02*
X146970200Y-105681099I0J-101599D01*
G01*
X146970200Y-106781101D01*
G75*
G02*
X146868601Y-106882700I-101599J0D01*
G01*
X145868599Y-106882700D01*
G75*
G02*
X145767000Y-106781101I0J101599D01*
G01*
X145767000Y-105681099D01*
G75*
G02*
X145868599Y-105579500I101599J0D01*
G01*
G37*
G36*
G01*
X141090200Y-102771099D02*
X141090200Y-103771101D01*
G75*
G02*
X140988601Y-103872700I-101599J0D01*
G01*
X139888599Y-103872700D01*
G75*
G02*
X139787000Y-103771101I0J101599D01*
G01*
X139787000Y-102771099D01*
G75*
G02*
X139888599Y-102669500I101599J0D01*
G01*
X140988601Y-102669500D01*
G75*
G02*
X141090200Y-102771099I0J-101599D01*
G01*
G37*
G36*
G01*
X142790200Y-102771099D02*
X142790200Y-103771101D01*
G75*
G02*
X142688601Y-103872700I-101599J0D01*
G01*
X141588599Y-103872700D01*
G75*
G02*
X141487000Y-103771101I0J101599D01*
G01*
X141487000Y-102771099D01*
G75*
G02*
X141588599Y-102669500I101599J0D01*
G01*
X142688601Y-102669500D01*
G75*
G02*
X142790200Y-102771099I0J-101599D01*
G01*
G37*
G36*
G01*
X141090200Y-105946099D02*
X141090200Y-106946101D01*
G75*
G02*
X140988601Y-107047700I-101599J0D01*
G01*
X139888599Y-107047700D01*
G75*
G02*
X139787000Y-106946101I0J101599D01*
G01*
X139787000Y-105946099D01*
G75*
G02*
X139888599Y-105844500I101599J0D01*
G01*
X140988601Y-105844500D01*
G75*
G02*
X141090200Y-105946099I0J-101599D01*
G01*
G37*
G36*
G01*
X142790200Y-105946099D02*
X142790200Y-106946101D01*
G75*
G02*
X142688601Y-107047700I-101599J0D01*
G01*
X141588599Y-107047700D01*
G75*
G02*
X141487000Y-106946101I0J101599D01*
G01*
X141487000Y-105946099D01*
G75*
G02*
X141588599Y-105844500I101599J0D01*
G01*
X142688601Y-105844500D01*
G75*
G02*
X142790200Y-105946099I0J-101599D01*
G01*
G37*
G36*
G01*
X137915200Y-100231099D02*
X137915200Y-101231101D01*
G75*
G02*
X137813601Y-101332700I-101599J0D01*
G01*
X136713599Y-101332700D01*
G75*
G02*
X136612000Y-101231101I0J101599D01*
G01*
X136612000Y-100231099D01*
G75*
G02*
X136713599Y-100129500I101599J0D01*
G01*
X137813601Y-100129500D01*
G75*
G02*
X137915200Y-100231099I0J-101599D01*
G01*
G37*
G36*
G01*
X139615200Y-100231099D02*
X139615200Y-101231101D01*
G75*
G02*
X139513601Y-101332700I-101599J0D01*
G01*
X138413599Y-101332700D01*
G75*
G02*
X138312000Y-101231101I0J101599D01*
G01*
X138312000Y-100231099D01*
G75*
G02*
X138413599Y-100129500I101599J0D01*
G01*
X139513601Y-100129500D01*
G75*
G02*
X139615200Y-100231099I0J-101599D01*
G01*
G37*
G36*
G01*
X138312000Y-109486101D02*
X138312000Y-108486099D01*
G75*
G02*
X138413599Y-108384500I101599J0D01*
G01*
X139513601Y-108384500D01*
G75*
G02*
X139615200Y-108486099I0J-101599D01*
G01*
X139615200Y-109486101D01*
G75*
G02*
X139513601Y-109587700I-101599J0D01*
G01*
X138413599Y-109587700D01*
G75*
G02*
X138312000Y-109486101I0J101599D01*
G01*
G37*
G36*
G01*
X136612000Y-109486101D02*
X136612000Y-108486099D01*
G75*
G02*
X136713599Y-108384500I101599J0D01*
G01*
X137813601Y-108384500D01*
G75*
G02*
X137915200Y-108486099I0J-101599D01*
G01*
X137915200Y-109486101D01*
G75*
G02*
X137813601Y-109587700I-101599J0D01*
G01*
X136713599Y-109587700D01*
G75*
G02*
X136612000Y-109486101I0J101599D01*
G01*
G37*
G36*
G01*
X135137000Y-106946101D02*
X135137000Y-105946099D01*
G75*
G02*
X135238599Y-105844500I101599J0D01*
G01*
X136338601Y-105844500D01*
G75*
G02*
X136440200Y-105946099I0J-101599D01*
G01*
X136440200Y-106946101D01*
G75*
G02*
X136338601Y-107047700I-101599J0D01*
G01*
X135238599Y-107047700D01*
G75*
G02*
X135137000Y-106946101I0J101599D01*
G01*
G37*
G36*
G01*
X133437000Y-106946101D02*
X133437000Y-105946099D01*
G75*
G02*
X133538599Y-105844500I101599J0D01*
G01*
X134638601Y-105844500D01*
G75*
G02*
X134740200Y-105946099I0J-101599D01*
G01*
X134740200Y-106946101D01*
G75*
G02*
X134638601Y-107047700I-101599J0D01*
G01*
X133538599Y-107047700D01*
G75*
G02*
X133437000Y-106946101I0J101599D01*
G01*
G37*
G36*
G01*
X138312000Y-99008601D02*
X138312000Y-98008599D01*
G75*
G02*
X138413599Y-97907000I101599J0D01*
G01*
X139513601Y-97907000D01*
G75*
G02*
X139615200Y-98008599I0J-101599D01*
G01*
X139615200Y-99008601D01*
G75*
G02*
X139513601Y-99110200I-101599J0D01*
G01*
X138413599Y-99110200D01*
G75*
G02*
X138312000Y-99008601I0J101599D01*
G01*
G37*
G36*
G01*
X136612000Y-99008601D02*
X136612000Y-98008599D01*
G75*
G02*
X136713599Y-97907000I101599J0D01*
G01*
X137813601Y-97907000D01*
G75*
G02*
X137915200Y-98008599I0J-101599D01*
G01*
X137915200Y-99008601D01*
G75*
G02*
X137813601Y-99110200I-101599J0D01*
G01*
X136713599Y-99110200D01*
G75*
G02*
X136612000Y-99008601I0J101599D01*
G01*
G37*
G36*
G01*
X143074500Y-96786101D02*
X143074500Y-95786099D01*
G75*
G02*
X143176099Y-95684500I101599J0D01*
G01*
X144276101Y-95684500D01*
G75*
G02*
X144377700Y-95786099I0J-101599D01*
G01*
X144377700Y-96786101D01*
G75*
G02*
X144276101Y-96887700I-101599J0D01*
G01*
X143176099Y-96887700D01*
G75*
G02*
X143074500Y-96786101I0J101599D01*
G01*
G37*
G36*
G01*
X141374500Y-96786101D02*
X141374500Y-95786099D01*
G75*
G02*
X141476099Y-95684500I101599J0D01*
G01*
X142576101Y-95684500D01*
G75*
G02*
X142677700Y-95786099I0J-101599D01*
G01*
X142677700Y-96786101D01*
G75*
G02*
X142576101Y-96887700I-101599J0D01*
G01*
X141476099Y-96887700D01*
G75*
G02*
X141374500Y-96786101I0J101599D01*
G01*
G37*
G36*
G01*
X153472700Y-100866099D02*
X153472700Y-101866101D01*
G75*
G02*
X153371101Y-101967700I-101599J0D01*
G01*
X152271099Y-101967700D01*
G75*
G02*
X152169500Y-101866101I0J101599D01*
G01*
X152169500Y-100866099D01*
G75*
G02*
X152271099Y-100764500I101599J0D01*
G01*
X153371101Y-100764500D01*
G75*
G02*
X153472700Y-100866099I0J-101599D01*
G01*
G37*
G36*
G01*
X155172700Y-100866099D02*
X155172700Y-101866101D01*
G75*
G02*
X155071101Y-101967700I-101599J0D01*
G01*
X153971099Y-101967700D01*
G75*
G02*
X153869500Y-101866101I0J101599D01*
G01*
X153869500Y-100866099D01*
G75*
G02*
X153971099Y-100764500I101599J0D01*
G01*
X155071101Y-100764500D01*
G75*
G02*
X155172700Y-100866099I0J-101599D01*
G01*
G37*
G36*
G01*
X153472700Y-96421099D02*
X153472700Y-97421101D01*
G75*
G02*
X153371101Y-97522700I-101599J0D01*
G01*
X152271099Y-97522700D01*
G75*
G02*
X152169500Y-97421101I0J101599D01*
G01*
X152169500Y-96421099D01*
G75*
G02*
X152271099Y-96319500I101599J0D01*
G01*
X153371101Y-96319500D01*
G75*
G02*
X153472700Y-96421099I0J-101599D01*
G01*
G37*
G36*
G01*
X155172700Y-96421099D02*
X155172700Y-97421101D01*
G75*
G02*
X155071101Y-97522700I-101599J0D01*
G01*
X153971099Y-97522700D01*
G75*
G02*
X153869500Y-97421101I0J101599D01*
G01*
X153869500Y-96421099D01*
G75*
G02*
X153971099Y-96319500I101599J0D01*
G01*
X155071101Y-96319500D01*
G75*
G02*
X155172700Y-96421099I0J-101599D01*
G01*
G37*
G36*
G01*
X143328599Y-111089500D02*
X144328601Y-111089500D01*
G75*
G02*
X144430200Y-111191099I0J-101599D01*
G01*
X144430200Y-112291101D01*
G75*
G02*
X144328601Y-112392700I-101599J0D01*
G01*
X143328599Y-112392700D01*
G75*
G02*
X143227000Y-112291101I0J101599D01*
G01*
X143227000Y-111191099D01*
G75*
G02*
X143328599Y-111089500I101599J0D01*
G01*
G37*
G36*
G01*
X143328599Y-109389500D02*
X144328601Y-109389500D01*
G75*
G02*
X144430200Y-109491099I0J-101599D01*
G01*
X144430200Y-110591101D01*
G75*
G02*
X144328601Y-110692700I-101599J0D01*
G01*
X143328599Y-110692700D01*
G75*
G02*
X143227000Y-110591101I0J101599D01*
G01*
X143227000Y-109491099D01*
G75*
G02*
X143328599Y-109389500I101599J0D01*
G01*
G37*
G36*
G01*
X144900200Y-113566099D02*
X144900200Y-114566101D01*
G75*
G02*
X144798601Y-114667700I-101599J0D01*
G01*
X143698599Y-114667700D01*
G75*
G02*
X143597000Y-114566101I0J101599D01*
G01*
X143597000Y-113566099D01*
G75*
G02*
X143698599Y-113464500I101599J0D01*
G01*
X144798601Y-113464500D01*
G75*
G02*
X144900200Y-113566099I0J-101599D01*
G01*
G37*
G36*
G01*
X146600200Y-113566099D02*
X146600200Y-114566101D01*
G75*
G02*
X146498601Y-114667700I-101599J0D01*
G01*
X145398599Y-114667700D01*
G75*
G02*
X145297000Y-114566101I0J101599D01*
G01*
X145297000Y-113566099D01*
G75*
G02*
X145398599Y-113464500I101599J0D01*
G01*
X146498601Y-113464500D01*
G75*
G02*
X146600200Y-113566099I0J-101599D01*
G01*
G37*
D17*
X164084000Y-116268500D03*
X164084000Y-113728500D03*
X164084000Y-111188500D03*
X164084000Y-108648500D03*
X164084000Y-106108500D03*
X164084000Y-103568500D03*
X164084000Y-101028500D03*
X164084000Y-98488500D03*
X164084000Y-95948500D03*
X164084000Y-93408500D03*
G36*
G01*
X144378601Y-106832700D02*
X143278599Y-106832700D01*
G75*
G02*
X143177000Y-106731101I0J101599D01*
G01*
X143177000Y-105731099D01*
G75*
G02*
X143278599Y-105629500I101599J0D01*
G01*
X144378601Y-105629500D01*
G75*
G02*
X144480200Y-105731099I0J-101599D01*
G01*
X144480200Y-106731101D01*
G75*
G02*
X144378601Y-106832700I-101599J0D01*
G01*
G37*
G36*
G01*
X144378601Y-108532700D02*
X143278599Y-108532700D01*
G75*
G02*
X143177000Y-108431101I0J101599D01*
G01*
X143177000Y-107431099D01*
G75*
G02*
X143278599Y-107329500I101599J0D01*
G01*
X144378601Y-107329500D01*
G75*
G02*
X144480200Y-107431099I0J-101599D01*
G01*
X144480200Y-108431101D01*
G75*
G02*
X144378601Y-108532700I-101599J0D01*
G01*
G37*
G36*
G01*
X144378601Y-102387700D02*
X143278599Y-102387700D01*
G75*
G02*
X143177000Y-102286101I0J101599D01*
G01*
X143177000Y-101286099D01*
G75*
G02*
X143278599Y-101184500I101599J0D01*
G01*
X144378601Y-101184500D01*
G75*
G02*
X144480200Y-101286099I0J-101599D01*
G01*
X144480200Y-102286101D01*
G75*
G02*
X144378601Y-102387700I-101599J0D01*
G01*
G37*
G36*
G01*
X144378601Y-104087700D02*
X143278599Y-104087700D01*
G75*
G02*
X143177000Y-103986101I0J101599D01*
G01*
X143177000Y-102986099D01*
G75*
G02*
X143278599Y-102884500I101599J0D01*
G01*
X144378601Y-102884500D01*
G75*
G02*
X144480200Y-102986099I0J-101599D01*
G01*
X144480200Y-103986101D01*
G75*
G02*
X144378601Y-104087700I-101599J0D01*
G01*
G37*
G36*
G01*
X137865200Y-102721099D02*
X137865200Y-103821101D01*
G75*
G02*
X137763601Y-103922700I-101599J0D01*
G01*
X136763599Y-103922700D01*
G75*
G02*
X136662000Y-103821101I0J101599D01*
G01*
X136662000Y-102721099D01*
G75*
G02*
X136763599Y-102619500I101599J0D01*
G01*
X137763601Y-102619500D01*
G75*
G02*
X137865200Y-102721099I0J-101599D01*
G01*
G37*
G36*
G01*
X139565200Y-102721099D02*
X139565200Y-103821101D01*
G75*
G02*
X139463601Y-103922700I-101599J0D01*
G01*
X138463599Y-103922700D01*
G75*
G02*
X138362000Y-103821101I0J101599D01*
G01*
X138362000Y-102721099D01*
G75*
G02*
X138463599Y-102619500I101599J0D01*
G01*
X139463601Y-102619500D01*
G75*
G02*
X139565200Y-102721099I0J-101599D01*
G01*
G37*
G36*
G01*
X137865200Y-105896099D02*
X137865200Y-106996101D01*
G75*
G02*
X137763601Y-107097700I-101599J0D01*
G01*
X136763599Y-107097700D01*
G75*
G02*
X136662000Y-106996101I0J101599D01*
G01*
X136662000Y-105896099D01*
G75*
G02*
X136763599Y-105794500I101599J0D01*
G01*
X137763601Y-105794500D01*
G75*
G02*
X137865200Y-105896099I0J-101599D01*
G01*
G37*
G36*
G01*
X139565200Y-105896099D02*
X139565200Y-106996101D01*
G75*
G02*
X139463601Y-107097700I-101599J0D01*
G01*
X138463599Y-107097700D01*
G75*
G02*
X138362000Y-106996101I0J101599D01*
G01*
X138362000Y-105896099D01*
G75*
G02*
X138463599Y-105794500I101599J0D01*
G01*
X139463601Y-105794500D01*
G75*
G02*
X139565200Y-105896099I0J-101599D01*
G01*
G37*
G36*
G01*
X134690200Y-102721099D02*
X134690200Y-103821101D01*
G75*
G02*
X134588601Y-103922700I-101599J0D01*
G01*
X133588599Y-103922700D01*
G75*
G02*
X133487000Y-103821101I0J101599D01*
G01*
X133487000Y-102721099D01*
G75*
G02*
X133588599Y-102619500I101599J0D01*
G01*
X134588601Y-102619500D01*
G75*
G02*
X134690200Y-102721099I0J-101599D01*
G01*
G37*
G36*
G01*
X136390200Y-102721099D02*
X136390200Y-103821101D01*
G75*
G02*
X136288601Y-103922700I-101599J0D01*
G01*
X135288599Y-103922700D01*
G75*
G02*
X135187000Y-103821101I0J101599D01*
G01*
X135187000Y-102721099D01*
G75*
G02*
X135288599Y-102619500I101599J0D01*
G01*
X136288601Y-102619500D01*
G75*
G02*
X136390200Y-102721099I0J-101599D01*
G01*
G37*
G36*
G01*
X138362000Y-112076101D02*
X138362000Y-110976099D01*
G75*
G02*
X138463599Y-110874500I101599J0D01*
G01*
X139463601Y-110874500D01*
G75*
G02*
X139565200Y-110976099I0J-101599D01*
G01*
X139565200Y-112076101D01*
G75*
G02*
X139463601Y-112177700I-101599J0D01*
G01*
X138463599Y-112177700D01*
G75*
G02*
X138362000Y-112076101I0J101599D01*
G01*
G37*
G36*
G01*
X136662000Y-112076101D02*
X136662000Y-110976099D01*
G75*
G02*
X136763599Y-110874500I101599J0D01*
G01*
X137763601Y-110874500D01*
G75*
G02*
X137865200Y-110976099I0J-101599D01*
G01*
X137865200Y-112076101D01*
G75*
G02*
X137763601Y-112177700I-101599J0D01*
G01*
X136763599Y-112177700D01*
G75*
G02*
X136662000Y-112076101I0J101599D01*
G01*
G37*
G36*
G01*
X138362000Y-96836101D02*
X138362000Y-95736099D01*
G75*
G02*
X138463599Y-95634500I101599J0D01*
G01*
X139463601Y-95634500D01*
G75*
G02*
X139565200Y-95736099I0J-101599D01*
G01*
X139565200Y-96836101D01*
G75*
G02*
X139463601Y-96937700I-101599J0D01*
G01*
X138463599Y-96937700D01*
G75*
G02*
X138362000Y-96836101I0J101599D01*
G01*
G37*
G36*
G01*
X136662000Y-96836101D02*
X136662000Y-95736099D01*
G75*
G02*
X136763599Y-95634500I101599J0D01*
G01*
X137763601Y-95634500D01*
G75*
G02*
X137865200Y-95736099I0J-101599D01*
G01*
X137865200Y-96836101D01*
G75*
G02*
X137763601Y-96937700I-101599J0D01*
G01*
X136763599Y-96937700D01*
G75*
G02*
X136662000Y-96836101I0J101599D01*
G01*
G37*
G36*
G01*
X153919500Y-99693601D02*
X153919500Y-98593599D01*
G75*
G02*
X154021099Y-98492000I101599J0D01*
G01*
X155021101Y-98492000D01*
G75*
G02*
X155122700Y-98593599I0J-101599D01*
G01*
X155122700Y-99693601D01*
G75*
G02*
X155021101Y-99795200I-101599J0D01*
G01*
X154021099Y-99795200D01*
G75*
G02*
X153919500Y-99693601I0J101599D01*
G01*
G37*
G36*
G01*
X152219500Y-99693601D02*
X152219500Y-98593599D01*
G75*
G02*
X152321099Y-98492000I101599J0D01*
G01*
X153321101Y-98492000D01*
G75*
G02*
X153422700Y-98593599I0J-101599D01*
G01*
X153422700Y-99693601D01*
G75*
G02*
X153321101Y-99795200I-101599J0D01*
G01*
X152321099Y-99795200D01*
G75*
G02*
X152219500Y-99693601I0J101599D01*
G01*
G37*
G36*
G01*
X150427000Y-110806101D02*
X150427000Y-109706099D01*
G75*
G02*
X150528599Y-109604500I101599J0D01*
G01*
X151528601Y-109604500D01*
G75*
G02*
X151630200Y-109706099I0J-101599D01*
G01*
X151630200Y-110806101D01*
G75*
G02*
X151528601Y-110907700I-101599J0D01*
G01*
X150528599Y-110907700D01*
G75*
G02*
X150427000Y-110806101I0J101599D01*
G01*
G37*
G36*
G01*
X148727000Y-110806101D02*
X148727000Y-109706099D01*
G75*
G02*
X148828599Y-109604500I101599J0D01*
G01*
X149828601Y-109604500D01*
G75*
G02*
X149930200Y-109706099I0J-101599D01*
G01*
X149930200Y-110806101D01*
G75*
G02*
X149828601Y-110907700I-101599J0D01*
G01*
X148828599Y-110907700D01*
G75*
G02*
X148727000Y-110806101I0J101599D01*
G01*
G37*
G36*
G01*
X145818599Y-111139500D02*
X146918601Y-111139500D01*
G75*
G02*
X147020200Y-111241099I0J-101599D01*
G01*
X147020200Y-112241101D01*
G75*
G02*
X146918601Y-112342700I-101599J0D01*
G01*
X145818599Y-112342700D01*
G75*
G02*
X145717000Y-112241101I0J101599D01*
G01*
X145717000Y-111241099D01*
G75*
G02*
X145818599Y-111139500I101599J0D01*
G01*
G37*
G36*
G01*
X145818599Y-109439500D02*
X146918601Y-109439500D01*
G75*
G02*
X147020200Y-109541099I0J-101599D01*
G01*
X147020200Y-110541101D01*
G75*
G02*
X146918601Y-110642700I-101599J0D01*
G01*
X145818599Y-110642700D01*
G75*
G02*
X145717000Y-110541101I0J101599D01*
G01*
X145717000Y-109541099D01*
G75*
G02*
X145818599Y-109439500I101599J0D01*
G01*
G37*
G36*
G01*
X149590200Y-102601100D02*
X149590200Y-103251100D01*
G75*
G02*
X149488600Y-103352700I-101600J0D01*
G01*
X149138600Y-103352700D01*
G75*
G02*
X149037000Y-103251100I0J101600D01*
G01*
X149037000Y-102601100D01*
G75*
G02*
X149138600Y-102499500I101600J0D01*
G01*
X149488600Y-102499500D01*
G75*
G02*
X149590200Y-102601100I0J-101600D01*
G01*
G37*
G36*
G01*
X150090200Y-102601100D02*
X150090200Y-103251100D01*
G75*
G02*
X149988600Y-103352700I-101600J0D01*
G01*
X149638600Y-103352700D01*
G75*
G02*
X149537000Y-103251100I0J101600D01*
G01*
X149537000Y-102601100D01*
G75*
G02*
X149638600Y-102499500I101600J0D01*
G01*
X149988600Y-102499500D01*
G75*
G02*
X150090200Y-102601100I0J-101600D01*
G01*
G37*
G36*
G01*
X150590200Y-102601100D02*
X150590200Y-103251100D01*
G75*
G02*
X150488600Y-103352700I-101600J0D01*
G01*
X150138600Y-103352700D01*
G75*
G02*
X150037000Y-103251100I0J101600D01*
G01*
X150037000Y-102601100D01*
G75*
G02*
X150138600Y-102499500I101600J0D01*
G01*
X150488600Y-102499500D01*
G75*
G02*
X150590200Y-102601100I0J-101600D01*
G01*
G37*
G36*
G01*
X151090200Y-102601100D02*
X151090200Y-103251100D01*
G75*
G02*
X150988600Y-103352700I-101600J0D01*
G01*
X150638600Y-103352700D01*
G75*
G02*
X150537000Y-103251100I0J101600D01*
G01*
X150537000Y-102601100D01*
G75*
G02*
X150638600Y-102499500I101600J0D01*
G01*
X150988600Y-102499500D01*
G75*
G02*
X151090200Y-102601100I0J-101600D01*
G01*
G37*
G36*
G01*
X151590200Y-102601100D02*
X151590200Y-103251100D01*
G75*
G02*
X151488600Y-103352700I-101600J0D01*
G01*
X151138600Y-103352700D01*
G75*
G02*
X151037000Y-103251100I0J101600D01*
G01*
X151037000Y-102601100D01*
G75*
G02*
X151138600Y-102499500I101600J0D01*
G01*
X151488600Y-102499500D01*
G75*
G02*
X151590200Y-102601100I0J-101600D01*
G01*
G37*
G36*
G01*
X152090200Y-102601100D02*
X152090200Y-103251100D01*
G75*
G02*
X151988600Y-103352700I-101600J0D01*
G01*
X151638600Y-103352700D01*
G75*
G02*
X151537000Y-103251100I0J101600D01*
G01*
X151537000Y-102601100D01*
G75*
G02*
X151638600Y-102499500I101600J0D01*
G01*
X151988600Y-102499500D01*
G75*
G02*
X152090200Y-102601100I0J-101600D01*
G01*
G37*
G36*
G01*
X152590200Y-102601100D02*
X152590200Y-103251100D01*
G75*
G02*
X152488600Y-103352700I-101600J0D01*
G01*
X152138600Y-103352700D01*
G75*
G02*
X152037000Y-103251100I0J101600D01*
G01*
X152037000Y-102601100D01*
G75*
G02*
X152138600Y-102499500I101600J0D01*
G01*
X152488600Y-102499500D01*
G75*
G02*
X152590200Y-102601100I0J-101600D01*
G01*
G37*
G36*
G01*
X152738600Y-103399500D02*
X153388600Y-103399500D01*
G75*
G02*
X153490200Y-103501100I0J-101600D01*
G01*
X153490200Y-103851100D01*
G75*
G02*
X153388600Y-103952700I-101600J0D01*
G01*
X152738600Y-103952700D01*
G75*
G02*
X152637000Y-103851100I0J101600D01*
G01*
X152637000Y-103501100D01*
G75*
G02*
X152738600Y-103399500I101600J0D01*
G01*
G37*
G36*
G01*
X152738600Y-103899500D02*
X153388600Y-103899500D01*
G75*
G02*
X153490200Y-104001100I0J-101600D01*
G01*
X153490200Y-104351100D01*
G75*
G02*
X153388600Y-104452700I-101600J0D01*
G01*
X152738600Y-104452700D01*
G75*
G02*
X152637000Y-104351100I0J101600D01*
G01*
X152637000Y-104001100D01*
G75*
G02*
X152738600Y-103899500I101600J0D01*
G01*
G37*
G36*
G01*
X152738600Y-104399500D02*
X153388600Y-104399500D01*
G75*
G02*
X153490200Y-104501100I0J-101600D01*
G01*
X153490200Y-104851100D01*
G75*
G02*
X153388600Y-104952700I-101600J0D01*
G01*
X152738600Y-104952700D01*
G75*
G02*
X152637000Y-104851100I0J101600D01*
G01*
X152637000Y-104501100D01*
G75*
G02*
X152738600Y-104399500I101600J0D01*
G01*
G37*
G36*
G01*
X152738600Y-104899500D02*
X153388600Y-104899500D01*
G75*
G02*
X153490200Y-105001100I0J-101600D01*
G01*
X153490200Y-105351100D01*
G75*
G02*
X153388600Y-105452700I-101600J0D01*
G01*
X152738600Y-105452700D01*
G75*
G02*
X152637000Y-105351100I0J101600D01*
G01*
X152637000Y-105001100D01*
G75*
G02*
X152738600Y-104899500I101600J0D01*
G01*
G37*
G36*
G01*
X152738600Y-105399500D02*
X153388600Y-105399500D01*
G75*
G02*
X153490200Y-105501100I0J-101600D01*
G01*
X153490200Y-105851100D01*
G75*
G02*
X153388600Y-105952700I-101600J0D01*
G01*
X152738600Y-105952700D01*
G75*
G02*
X152637000Y-105851100I0J101600D01*
G01*
X152637000Y-105501100D01*
G75*
G02*
X152738600Y-105399500I101600J0D01*
G01*
G37*
G36*
G01*
X152738600Y-105899500D02*
X153388600Y-105899500D01*
G75*
G02*
X153490200Y-106001100I0J-101600D01*
G01*
X153490200Y-106351100D01*
G75*
G02*
X153388600Y-106452700I-101600J0D01*
G01*
X152738600Y-106452700D01*
G75*
G02*
X152637000Y-106351100I0J101600D01*
G01*
X152637000Y-106001100D01*
G75*
G02*
X152738600Y-105899500I101600J0D01*
G01*
G37*
G36*
G01*
X152738600Y-106399500D02*
X153388600Y-106399500D01*
G75*
G02*
X153490200Y-106501100I0J-101600D01*
G01*
X153490200Y-106851100D01*
G75*
G02*
X153388600Y-106952700I-101600J0D01*
G01*
X152738600Y-106952700D01*
G75*
G02*
X152637000Y-106851100I0J101600D01*
G01*
X152637000Y-106501100D01*
G75*
G02*
X152738600Y-106399500I101600J0D01*
G01*
G37*
G36*
G01*
X152590200Y-107101100D02*
X152590200Y-107751100D01*
G75*
G02*
X152488600Y-107852700I-101600J0D01*
G01*
X152138600Y-107852700D01*
G75*
G02*
X152037000Y-107751100I0J101600D01*
G01*
X152037000Y-107101100D01*
G75*
G02*
X152138600Y-106999500I101600J0D01*
G01*
X152488600Y-106999500D01*
G75*
G02*
X152590200Y-107101100I0J-101600D01*
G01*
G37*
G36*
G01*
X152090200Y-107101100D02*
X152090200Y-107751100D01*
G75*
G02*
X151988600Y-107852700I-101600J0D01*
G01*
X151638600Y-107852700D01*
G75*
G02*
X151537000Y-107751100I0J101600D01*
G01*
X151537000Y-107101100D01*
G75*
G02*
X151638600Y-106999500I101600J0D01*
G01*
X151988600Y-106999500D01*
G75*
G02*
X152090200Y-107101100I0J-101600D01*
G01*
G37*
G36*
G01*
X151590200Y-107101100D02*
X151590200Y-107751100D01*
G75*
G02*
X151488600Y-107852700I-101600J0D01*
G01*
X151138600Y-107852700D01*
G75*
G02*
X151037000Y-107751100I0J101600D01*
G01*
X151037000Y-107101100D01*
G75*
G02*
X151138600Y-106999500I101600J0D01*
G01*
X151488600Y-106999500D01*
G75*
G02*
X151590200Y-107101100I0J-101600D01*
G01*
G37*
G36*
G01*
X151090200Y-107101100D02*
X151090200Y-107751100D01*
G75*
G02*
X150988600Y-107852700I-101600J0D01*
G01*
X150638600Y-107852700D01*
G75*
G02*
X150537000Y-107751100I0J101600D01*
G01*
X150537000Y-107101100D01*
G75*
G02*
X150638600Y-106999500I101600J0D01*
G01*
X150988600Y-106999500D01*
G75*
G02*
X151090200Y-107101100I0J-101600D01*
G01*
G37*
G36*
G01*
X150590200Y-107101100D02*
X150590200Y-107751100D01*
G75*
G02*
X150488600Y-107852700I-101600J0D01*
G01*
X150138600Y-107852700D01*
G75*
G02*
X150037000Y-107751100I0J101600D01*
G01*
X150037000Y-107101100D01*
G75*
G02*
X150138600Y-106999500I101600J0D01*
G01*
X150488600Y-106999500D01*
G75*
G02*
X150590200Y-107101100I0J-101600D01*
G01*
G37*
G36*
G01*
X150090200Y-107101100D02*
X150090200Y-107751100D01*
G75*
G02*
X149988600Y-107852700I-101600J0D01*
G01*
X149638600Y-107852700D01*
G75*
G02*
X149537000Y-107751100I0J101600D01*
G01*
X149537000Y-107101100D01*
G75*
G02*
X149638600Y-106999500I101600J0D01*
G01*
X149988600Y-106999500D01*
G75*
G02*
X150090200Y-107101100I0J-101600D01*
G01*
G37*
G36*
G01*
X149590200Y-107101100D02*
X149590200Y-107751100D01*
G75*
G02*
X149488600Y-107852700I-101600J0D01*
G01*
X149138600Y-107852700D01*
G75*
G02*
X149037000Y-107751100I0J101600D01*
G01*
X149037000Y-107101100D01*
G75*
G02*
X149138600Y-106999500I101600J0D01*
G01*
X149488600Y-106999500D01*
G75*
G02*
X149590200Y-107101100I0J-101600D01*
G01*
G37*
G36*
G01*
X148888600Y-106952700D02*
X148238600Y-106952700D01*
G75*
G02*
X148137000Y-106851100I0J101600D01*
G01*
X148137000Y-106501100D01*
G75*
G02*
X148238600Y-106399500I101600J0D01*
G01*
X148888600Y-106399500D01*
G75*
G02*
X148990200Y-106501100I0J-101600D01*
G01*
X148990200Y-106851100D01*
G75*
G02*
X148888600Y-106952700I-101600J0D01*
G01*
G37*
G36*
G01*
X148888600Y-106452700D02*
X148238600Y-106452700D01*
G75*
G02*
X148137000Y-106351100I0J101600D01*
G01*
X148137000Y-106001100D01*
G75*
G02*
X148238600Y-105899500I101600J0D01*
G01*
X148888600Y-105899500D01*
G75*
G02*
X148990200Y-106001100I0J-101600D01*
G01*
X148990200Y-106351100D01*
G75*
G02*
X148888600Y-106452700I-101600J0D01*
G01*
G37*
G36*
G01*
X148888600Y-105952700D02*
X148238600Y-105952700D01*
G75*
G02*
X148137000Y-105851100I0J101600D01*
G01*
X148137000Y-105501100D01*
G75*
G02*
X148238600Y-105399500I101600J0D01*
G01*
X148888600Y-105399500D01*
G75*
G02*
X148990200Y-105501100I0J-101600D01*
G01*
X148990200Y-105851100D01*
G75*
G02*
X148888600Y-105952700I-101600J0D01*
G01*
G37*
G36*
G01*
X148888600Y-105452700D02*
X148238600Y-105452700D01*
G75*
G02*
X148137000Y-105351100I0J101600D01*
G01*
X148137000Y-105001100D01*
G75*
G02*
X148238600Y-104899500I101600J0D01*
G01*
X148888600Y-104899500D01*
G75*
G02*
X148990200Y-105001100I0J-101600D01*
G01*
X148990200Y-105351100D01*
G75*
G02*
X148888600Y-105452700I-101600J0D01*
G01*
G37*
G36*
G01*
X148888600Y-104952700D02*
X148238600Y-104952700D01*
G75*
G02*
X148137000Y-104851100I0J101600D01*
G01*
X148137000Y-104501100D01*
G75*
G02*
X148238600Y-104399500I101600J0D01*
G01*
X148888600Y-104399500D01*
G75*
G02*
X148990200Y-104501100I0J-101600D01*
G01*
X148990200Y-104851100D01*
G75*
G02*
X148888600Y-104952700I-101600J0D01*
G01*
G37*
G36*
G01*
X148888600Y-104452700D02*
X148238600Y-104452700D01*
G75*
G02*
X148137000Y-104351100I0J101600D01*
G01*
X148137000Y-104001100D01*
G75*
G02*
X148238600Y-103899500I101600J0D01*
G01*
X148888600Y-103899500D01*
G75*
G02*
X148990200Y-104001100I0J-101600D01*
G01*
X148990200Y-104351100D01*
G75*
G02*
X148888600Y-104452700I-101600J0D01*
G01*
G37*
G36*
G01*
X148888600Y-103952700D02*
X148238600Y-103952700D01*
G75*
G02*
X148137000Y-103851100I0J101600D01*
G01*
X148137000Y-103501100D01*
G75*
G02*
X148238600Y-103399500I101600J0D01*
G01*
X148888600Y-103399500D01*
G75*
G02*
X148990200Y-103501100I0J-101600D01*
G01*
X148990200Y-103851100D01*
G75*
G02*
X148888600Y-103952700I-101600J0D01*
G01*
G37*
G36*
G01*
X149087000Y-106801100D02*
X149087000Y-103551100D01*
G75*
G02*
X149188600Y-103449500I101600J0D01*
G01*
X152438600Y-103449500D01*
G75*
G02*
X152540200Y-103551100I0J-101600D01*
G01*
X152540200Y-106801100D01*
G75*
G02*
X152438600Y-106902700I-101600J0D01*
G01*
X149188600Y-106902700D01*
G75*
G02*
X149087000Y-106801100I0J101600D01*
G01*
G37*
G36*
G01*
X126918300Y-109666600D02*
X126918300Y-106999600D01*
G75*
G02*
X127019900Y-106898000I101600J0D01*
G01*
X131210900Y-106898000D01*
G75*
G02*
X131312500Y-106999600I0J-101600D01*
G01*
X131312500Y-109666600D01*
G75*
G02*
X131210900Y-109768200I-101600J0D01*
G01*
X127019900Y-109768200D01*
G75*
G02*
X126918300Y-109666600I0J101600D01*
G01*
G37*
G36*
G01*
X126918300Y-102677400D02*
X126918300Y-100010400D01*
G75*
G02*
X127019900Y-99908800I101600J0D01*
G01*
X131210900Y-99908800D01*
G75*
G02*
X131312500Y-100010400I0J-101600D01*
G01*
X131312500Y-102677400D01*
G75*
G02*
X131210900Y-102779000I-101600J0D01*
G01*
X127019900Y-102779000D01*
G75*
G02*
X126918300Y-102677400I0J101600D01*
G01*
G37*
G36*
G01*
X126918300Y-105727500D02*
X126918300Y-103949500D01*
G75*
G02*
X127019900Y-103847900I101600J0D01*
G01*
X131210900Y-103847900D01*
G75*
G02*
X131312500Y-103949500I0J-101600D01*
G01*
X131312500Y-105727500D01*
G75*
G02*
X131210900Y-105829100I-101600J0D01*
G01*
X127019900Y-105829100D01*
G75*
G02*
X126918300Y-105727500I0J101600D01*
G01*
G37*
D18*
X141950000Y-99785000D03*
X143800000Y-99785000D03*
X143800000Y-98335000D03*
X141950000Y-98335000D03*
M02*
