M48
; DRILL file {KiCad 5.1.10} date Mon Sep 13 21:13:57 2021
; FORMAT={-:-/ absolute / metric / decimal}
; #@! TF.CreationDate,2021-09-13T21:13:57+02:00
; #@! TF.GenerationSoftware,Kicad,Pcbnew,5.1.10
; #@! TF.FileFunction,Plated,1,2,PTH
FMAT,2
METRIC
T1C0.200
T2C1.016
%
G90
G05
T1
X128.589Y-99.144
X128.589Y-110.574
X129.541Y-99.144
X129.541Y-110.574
X130.494Y-99.144
X130.494Y-110.574
X131.446Y-99.144
X131.446Y-110.574
X132.081Y-100.096
X132.081Y-101.049
X132.081Y-102.001
X132.081Y-102.954
X132.081Y-106.764
X132.081Y-107.716
X132.081Y-108.669
X132.081Y-109.621
X133.351Y-104.859
X134.304Y-104.859
X135.256Y-104.859
X135.574Y-95.651
X135.574Y-96.604
X135.574Y-97.556
X135.574Y-98.509
X135.574Y-99.461
X135.574Y-100.414
X135.574Y-101.366
X135.574Y-108.034
X135.574Y-108.986
X135.574Y-109.939
X135.574Y-110.891
X135.574Y-111.844
X135.574Y-112.796
X136.209Y-104.859
X137.161Y-104.859
X138.114Y-104.859
X138.431Y-102.001
X139.066Y-104.859
X139.701Y-102.001
X140.019Y-104.859
X140.336Y-97.239
X140.336Y-99.461
X140.336Y-100.414
X140.336Y-108.034
X140.336Y-108.986
X140.336Y-109.939
X140.336Y-110.891
X140.336Y-111.844
X140.336Y-112.796
X140.654Y-101.684
X140.971Y-104.859
X141.606Y-101.684
X141.924Y-104.859
X142.241Y-108.034
X142.241Y-108.986
X142.241Y-109.939
X142.241Y-110.891
X142.241Y-111.844
X142.241Y-112.796
X142.241Y-113.749
X142.241Y-114.701
X142.559Y-101.684
X142.875Y-97.472
X142.876Y-99.06
X142.876Y-100.52
X142.876Y-104.859
X145.099Y-95.969
X145.099Y-96.921
X145.099Y-99.779
X145.099Y-101.049
X145.099Y-102.319
X145.099Y-103.589
X145.099Y-106.129
X145.099Y-107.081
X145.099Y-108.034
X145.099Y-108.986
X146.686Y-96.604
X147.639Y-101.366
X147.639Y-108.351
X147.956Y-111.844
X147.956Y-112.796
X147.956Y-113.749
X147.956Y-114.701
X148.274Y-107.716
X148.909Y-96.604
X148.909Y-111.844
X149.861Y-99.144
X149.861Y-104.224
X149.861Y-106.129
X149.861Y-111.844
X150.814Y-96.604
X150.814Y-99.144
X150.814Y-100.414
X150.814Y-105.176
X150.814Y-111.844
X151.449Y-95.969
X151.449Y-97.239
X151.449Y-108.351
X151.766Y-104.224
X151.766Y-106.129
X151.766Y-111.844
X152.719Y-110.891
X152.719Y-111.844
X153.354Y-102.636
X154.306Y-102.636
X155.259Y-102.636
X155.894Y-95.016
X155.894Y-95.969
X155.894Y-96.921
X155.894Y-101.049
X155.894Y-102.001
X156.845Y-94.678
X157.799Y-94.699
X158.751Y-94.699
X159.704Y-94.699
X159.704Y-97.239
X160.656Y-94.699
X160.656Y-97.239
X162.18Y-94.699
X162.18Y-97.239
X162.18Y-112.479
X166.308Y-93.408
X166.308Y-94.753
X166.308Y-96.098
X166.308Y-97.443
X166.308Y-98.787
X166.308Y-100.132
X166.308Y-101.477
X166.308Y-102.821
X166.308Y-104.166
X166.308Y-105.511
X166.308Y-106.856
X166.308Y-108.2
X166.308Y-109.545
X166.308Y-110.89
X166.308Y-112.234
X166.308Y-113.579
X166.308Y-114.924
X166.308Y-116.268
T2
X164.084Y-93.408
X164.084Y-95.948
X164.084Y-98.489
X164.084Y-101.028
X164.084Y-103.569
X164.084Y-106.108
X164.084Y-108.648
X164.084Y-111.188
X164.084Y-113.728
X164.084Y-116.268
T0
M30
