G04 #@! TF.GenerationSoftware,KiCad,Pcbnew,5.1.10*
G04 #@! TF.CreationDate,2021-09-13T21:15:03+02:00*
G04 #@! TF.ProjectId,AX5043,41583530-3433-42e6-9b69-6361645f7063,rev?*
G04 #@! TF.SameCoordinates,Original*
G04 #@! TF.FileFunction,Copper,L2,Bot*
G04 #@! TF.FilePolarity,Positive*
%FSLAX46Y46*%
G04 Gerber Fmt 4.6, Leading zero omitted, Abs format (unit mm)*
G04 Created by KiCad (PCBNEW 5.1.10) date 2021-09-13 21:15:03*
%MOMM*%
%LPD*%
G01*
G04 APERTURE LIST*
G04 #@! TA.AperFunction,ComponentPad*
%ADD10O,3.048000X1.524000*%
G04 #@! TD*
G04 #@! TA.AperFunction,SMDPad,CuDef*
%ADD11R,4.191000X2.667000*%
G04 #@! TD*
G04 #@! TA.AperFunction,ViaPad*
%ADD12C,0.606400*%
G04 #@! TD*
G04 #@! TA.AperFunction,Conductor*
%ADD13C,0.355600*%
G04 #@! TD*
G04 #@! TA.AperFunction,Conductor*
%ADD14C,0.356000*%
G04 #@! TD*
G04 #@! TA.AperFunction,Conductor*
%ADD15C,0.177800*%
G04 #@! TD*
G04 #@! TA.AperFunction,Conductor*
%ADD16C,0.100000*%
G04 #@! TD*
G04 APERTURE END LIST*
D10*
X164084000Y-116268500D03*
X164084000Y-113728500D03*
X164084000Y-111188500D03*
X164084000Y-108648500D03*
X164084000Y-106108500D03*
X164084000Y-103568500D03*
X164084000Y-101028500D03*
X164084000Y-98488500D03*
X164084000Y-95948500D03*
X164084000Y-93408500D03*
D11*
X129115400Y-101343900D03*
X129115400Y-108333100D03*
D12*
X166307600Y-102821435D03*
X166307600Y-105510845D03*
X166307600Y-108200255D03*
X166307600Y-106855550D03*
X166307600Y-104166140D03*
X166307600Y-101476730D03*
X166307600Y-110889665D03*
X166307600Y-113579075D03*
X166307600Y-116268500D03*
X166307600Y-114923780D03*
X166307600Y-112234370D03*
X166307600Y-109544960D03*
X132081100Y-100096100D03*
X132081100Y-101048600D03*
X132081100Y-108668600D03*
X132081100Y-109621100D03*
X128588600Y-110573600D03*
X129541100Y-110573600D03*
X130493600Y-110573600D03*
X131446100Y-110573600D03*
X151766100Y-104223600D03*
X149861100Y-104223600D03*
X150813600Y-105176100D03*
X149861100Y-106128600D03*
X151766100Y-106128600D03*
X148273600Y-107716100D03*
X147638600Y-108351100D03*
X145098600Y-108986100D03*
X145098600Y-108033600D03*
X145098600Y-107081100D03*
X145098600Y-106128600D03*
X133351100Y-104858600D03*
X134303600Y-104858600D03*
X135256100Y-104858600D03*
X136208600Y-104858600D03*
X137161100Y-104858600D03*
X138113600Y-104858600D03*
X139066100Y-104858600D03*
X140018600Y-104858600D03*
X140971100Y-104858600D03*
X141923600Y-104858600D03*
X142876100Y-104858600D03*
X153353600Y-102636100D03*
X154306100Y-102636100D03*
X155258600Y-102636100D03*
X155893600Y-102001100D03*
X155893600Y-101048600D03*
X150813600Y-99143600D03*
X151448600Y-95968600D03*
X151448600Y-97238600D03*
X150813600Y-96603600D03*
X147638600Y-101366100D03*
X145098600Y-101048600D03*
X145098600Y-103588600D03*
X145098600Y-102318600D03*
X145098600Y-99778600D03*
X142875000Y-97472500D03*
X142876100Y-99060000D03*
X142876100Y-100520500D03*
X142558600Y-101683600D03*
X141606100Y-101683600D03*
X140653600Y-101683600D03*
X140336100Y-99461100D03*
X140336100Y-100413600D03*
X138431100Y-102001100D03*
X139701100Y-102001100D03*
X128588600Y-99143600D03*
X129541100Y-99143600D03*
X130493600Y-99143600D03*
X131446100Y-99143600D03*
X132081100Y-102001100D03*
X132081100Y-102953600D03*
X132081100Y-106763600D03*
X132081100Y-107716100D03*
X142241100Y-108033600D03*
X142241100Y-108986100D03*
X142241100Y-109938600D03*
X142241100Y-110891100D03*
X142241100Y-111843600D03*
X142241100Y-112796100D03*
X140336100Y-108033600D03*
X140336100Y-108986100D03*
X140336100Y-109938600D03*
X140336100Y-110891100D03*
X140336100Y-111843600D03*
X140336100Y-112796100D03*
X142241100Y-113748600D03*
X142241100Y-114701100D03*
X147956100Y-111843600D03*
X148908600Y-111843600D03*
X149861100Y-111843600D03*
X150813600Y-111843600D03*
X151766100Y-111843600D03*
X152718600Y-111843600D03*
X152718600Y-110891100D03*
X151448600Y-108351100D03*
X162180100Y-112478600D03*
X162180100Y-97238600D03*
X160656100Y-97238600D03*
X159703600Y-97238600D03*
X166307600Y-94753205D03*
X166307600Y-97442615D03*
X166307600Y-100132025D03*
X166307600Y-98787320D03*
X166307600Y-96097910D03*
X166307600Y-93408500D03*
X135573600Y-97556100D03*
X135573600Y-98508600D03*
X135573600Y-99461100D03*
X135573600Y-100413600D03*
X135573600Y-101366100D03*
X135573600Y-96603600D03*
X135573600Y-95651100D03*
X135573600Y-108033600D03*
X135573600Y-108986100D03*
X135573600Y-109938600D03*
X135573600Y-110891100D03*
X135573600Y-111843600D03*
X135573600Y-112796100D03*
X140336100Y-97238600D03*
X145098600Y-95968600D03*
X145098600Y-96921100D03*
X148908600Y-96603600D03*
X146686100Y-96603600D03*
X147956100Y-112796100D03*
X147956100Y-113748600D03*
X147956100Y-114701100D03*
X155893600Y-96921100D03*
X155893600Y-95968600D03*
X155893600Y-95016100D03*
X156845000Y-94678500D03*
X162180100Y-94698600D03*
X160656100Y-94698600D03*
X159703600Y-94698600D03*
X158751100Y-94698600D03*
X157798600Y-94698600D03*
X149861100Y-99143600D03*
X150813600Y-100413600D03*
D13*
X149861100Y-99143600D02*
X149861100Y-98826100D01*
X149861100Y-98826100D02*
X150496100Y-98191100D01*
X150496100Y-98191100D02*
X155618400Y-98191100D01*
D14*
X156380400Y-98191100D02*
X155618400Y-98191100D01*
X158623000Y-95948500D02*
X156380400Y-98191100D01*
X164084000Y-95948500D02*
X158623000Y-95948500D01*
D13*
X150813600Y-100413600D02*
X151766100Y-99461100D01*
X151766100Y-99461100D02*
X155722100Y-99461100D01*
D14*
X157650400Y-99461100D02*
X155722100Y-99461100D01*
X158623000Y-98488500D02*
X157650400Y-99461100D01*
X164084000Y-98488500D02*
X158623000Y-98488500D01*
D15*
X169500988Y-88469831D02*
X169982896Y-88615328D01*
X170427360Y-88851654D01*
X170817456Y-89169809D01*
X171138332Y-89557681D01*
X171377754Y-90000483D01*
X171526612Y-90481364D01*
X171581301Y-91001700D01*
X171581300Y-118979519D01*
X171530169Y-119500988D01*
X171384674Y-119982893D01*
X171148349Y-120427357D01*
X170830191Y-120817456D01*
X170442321Y-121138331D01*
X169999517Y-121377754D01*
X169518637Y-121526611D01*
X168998309Y-121581300D01*
X130020481Y-121581300D01*
X129499012Y-121530169D01*
X129017107Y-121384674D01*
X128572643Y-121148349D01*
X128182544Y-120830191D01*
X127861669Y-120442321D01*
X127622246Y-119999517D01*
X127473389Y-119518637D01*
X127418700Y-118998309D01*
X127418700Y-118828261D01*
X128256300Y-118828261D01*
X128256300Y-119171739D01*
X128323309Y-119508619D01*
X128454753Y-119825952D01*
X128645580Y-120111544D01*
X128888456Y-120354420D01*
X129174048Y-120545247D01*
X129491381Y-120676691D01*
X129828261Y-120743700D01*
X130171739Y-120743700D01*
X130508619Y-120676691D01*
X130825952Y-120545247D01*
X131111544Y-120354420D01*
X131354420Y-120111544D01*
X131545247Y-119825952D01*
X131676691Y-119508619D01*
X131743700Y-119171739D01*
X131743700Y-118828261D01*
X167256300Y-118828261D01*
X167256300Y-119171739D01*
X167323309Y-119508619D01*
X167454753Y-119825952D01*
X167645580Y-120111544D01*
X167888456Y-120354420D01*
X168174048Y-120545247D01*
X168491381Y-120676691D01*
X168828261Y-120743700D01*
X169171739Y-120743700D01*
X169508619Y-120676691D01*
X169825952Y-120545247D01*
X170111544Y-120354420D01*
X170354420Y-120111544D01*
X170545247Y-119825952D01*
X170676691Y-119508619D01*
X170743700Y-119171739D01*
X170743700Y-118828261D01*
X170676691Y-118491381D01*
X170545247Y-118174048D01*
X170354420Y-117888456D01*
X170111544Y-117645580D01*
X169825952Y-117454753D01*
X169508619Y-117323309D01*
X169171739Y-117256300D01*
X168828261Y-117256300D01*
X168491381Y-117323309D01*
X168174048Y-117454753D01*
X167888456Y-117645580D01*
X167645580Y-117888456D01*
X167454753Y-118174048D01*
X167323309Y-118491381D01*
X167256300Y-118828261D01*
X131743700Y-118828261D01*
X131676691Y-118491381D01*
X131545247Y-118174048D01*
X131354420Y-117888456D01*
X131111544Y-117645580D01*
X130825952Y-117454753D01*
X130508619Y-117323309D01*
X130171739Y-117256300D01*
X129828261Y-117256300D01*
X129491381Y-117323309D01*
X129174048Y-117454753D01*
X128888456Y-117645580D01*
X128645580Y-117888456D01*
X128454753Y-118174048D01*
X128323309Y-118491381D01*
X128256300Y-118828261D01*
X127418700Y-118828261D01*
X127418700Y-116268500D01*
X162160709Y-116268500D01*
X162183023Y-116495057D01*
X162249107Y-116712907D01*
X162356422Y-116913679D01*
X162500843Y-117089657D01*
X162676821Y-117234078D01*
X162877593Y-117341393D01*
X163095443Y-117407477D01*
X163265234Y-117424200D01*
X164902766Y-117424200D01*
X165072557Y-117407477D01*
X165290407Y-117341393D01*
X165491179Y-117234078D01*
X165667157Y-117089657D01*
X165811578Y-116913679D01*
X165918893Y-116712907D01*
X165984977Y-116495057D01*
X166007291Y-116268500D01*
X165984977Y-116041943D01*
X165918893Y-115824093D01*
X165811578Y-115623321D01*
X165667157Y-115447343D01*
X165491179Y-115302922D01*
X165290407Y-115195607D01*
X165072557Y-115129523D01*
X164902766Y-115112800D01*
X163265234Y-115112800D01*
X163095443Y-115129523D01*
X162877593Y-115195607D01*
X162676821Y-115302922D01*
X162500843Y-115447343D01*
X162356422Y-115623321D01*
X162249107Y-115824093D01*
X162183023Y-116041943D01*
X162160709Y-116268500D01*
X127418700Y-116268500D01*
X127418700Y-113728500D01*
X162160709Y-113728500D01*
X162183023Y-113955057D01*
X162249107Y-114172907D01*
X162356422Y-114373679D01*
X162500843Y-114549657D01*
X162676821Y-114694078D01*
X162877593Y-114801393D01*
X163095443Y-114867477D01*
X163265234Y-114884200D01*
X164902766Y-114884200D01*
X165072557Y-114867477D01*
X165290407Y-114801393D01*
X165491179Y-114694078D01*
X165667157Y-114549657D01*
X165811578Y-114373679D01*
X165918893Y-114172907D01*
X165984977Y-113955057D01*
X166007291Y-113728500D01*
X165984977Y-113501943D01*
X165918893Y-113284093D01*
X165811578Y-113083321D01*
X165667157Y-112907343D01*
X165491179Y-112762922D01*
X165290407Y-112655607D01*
X165072557Y-112589523D01*
X164902766Y-112572800D01*
X163265234Y-112572800D01*
X163095443Y-112589523D01*
X162877593Y-112655607D01*
X162676821Y-112762922D01*
X162500843Y-112907343D01*
X162356422Y-113083321D01*
X162249107Y-113284093D01*
X162183023Y-113501943D01*
X162160709Y-113728500D01*
X127418700Y-113728500D01*
X127418700Y-111188500D01*
X162160709Y-111188500D01*
X162183023Y-111415057D01*
X162249107Y-111632907D01*
X162356422Y-111833679D01*
X162500843Y-112009657D01*
X162676821Y-112154078D01*
X162877593Y-112261393D01*
X163095443Y-112327477D01*
X163265234Y-112344200D01*
X164902766Y-112344200D01*
X165072557Y-112327477D01*
X165290407Y-112261393D01*
X165491179Y-112154078D01*
X165667157Y-112009657D01*
X165811578Y-111833679D01*
X165918893Y-111632907D01*
X165984977Y-111415057D01*
X166007291Y-111188500D01*
X165984977Y-110961943D01*
X165918893Y-110744093D01*
X165811578Y-110543321D01*
X165667157Y-110367343D01*
X165491179Y-110222922D01*
X165290407Y-110115607D01*
X165072557Y-110049523D01*
X164902766Y-110032800D01*
X163265234Y-110032800D01*
X163095443Y-110049523D01*
X162877593Y-110115607D01*
X162676821Y-110222922D01*
X162500843Y-110367343D01*
X162356422Y-110543321D01*
X162249107Y-110744093D01*
X162183023Y-110961943D01*
X162160709Y-111188500D01*
X127418700Y-111188500D01*
X127418700Y-110162979D01*
X128877875Y-110161100D01*
X129001500Y-110037475D01*
X129001500Y-108447000D01*
X129229300Y-108447000D01*
X129229300Y-110037475D01*
X129352925Y-110161100D01*
X131210900Y-110163493D01*
X131307839Y-110153945D01*
X131401053Y-110125669D01*
X131486959Y-110079751D01*
X131562256Y-110017956D01*
X131624051Y-109942659D01*
X131669969Y-109856753D01*
X131698245Y-109763539D01*
X131707793Y-109666600D01*
X131705571Y-108648500D01*
X162160709Y-108648500D01*
X162183023Y-108875057D01*
X162249107Y-109092907D01*
X162356422Y-109293679D01*
X162500843Y-109469657D01*
X162676821Y-109614078D01*
X162877593Y-109721393D01*
X163095443Y-109787477D01*
X163265234Y-109804200D01*
X164902766Y-109804200D01*
X165072557Y-109787477D01*
X165290407Y-109721393D01*
X165491179Y-109614078D01*
X165667157Y-109469657D01*
X165811578Y-109293679D01*
X165918893Y-109092907D01*
X165984977Y-108875057D01*
X166007291Y-108648500D01*
X165984977Y-108421943D01*
X165918893Y-108204093D01*
X165811578Y-108003321D01*
X165667157Y-107827343D01*
X165491179Y-107682922D01*
X165290407Y-107575607D01*
X165072557Y-107509523D01*
X164902766Y-107492800D01*
X163265234Y-107492800D01*
X163095443Y-107509523D01*
X162877593Y-107575607D01*
X162676821Y-107682922D01*
X162500843Y-107827343D01*
X162356422Y-108003321D01*
X162249107Y-108204093D01*
X162183023Y-108421943D01*
X162160709Y-108648500D01*
X131705571Y-108648500D01*
X131705400Y-108570625D01*
X131581775Y-108447000D01*
X129229300Y-108447000D01*
X129001500Y-108447000D01*
X128981500Y-108447000D01*
X128981500Y-108219200D01*
X129001500Y-108219200D01*
X129001500Y-106628725D01*
X129229300Y-106628725D01*
X129229300Y-108219200D01*
X131581775Y-108219200D01*
X131705400Y-108095575D01*
X131707793Y-106999600D01*
X131698245Y-106902661D01*
X131669969Y-106809447D01*
X131624051Y-106723541D01*
X131562256Y-106648244D01*
X131486959Y-106586449D01*
X131401053Y-106540531D01*
X131307839Y-106512255D01*
X131210900Y-106502707D01*
X129352925Y-106505100D01*
X129229300Y-106628725D01*
X129001500Y-106628725D01*
X128877875Y-106505100D01*
X127418700Y-106503221D01*
X127418700Y-106416748D01*
X162103897Y-106416748D01*
X162117558Y-106484111D01*
X162213979Y-106711869D01*
X162352981Y-106916440D01*
X162529222Y-107089962D01*
X162735929Y-107225767D01*
X162965158Y-107318636D01*
X163208100Y-107365000D01*
X163970100Y-107365000D01*
X163970100Y-106222400D01*
X164197900Y-106222400D01*
X164197900Y-107365000D01*
X164959900Y-107365000D01*
X165202842Y-107318636D01*
X165432071Y-107225767D01*
X165638778Y-107089962D01*
X165815019Y-106916440D01*
X165954021Y-106711869D01*
X166050442Y-106484111D01*
X166064103Y-106416748D01*
X165973135Y-106222400D01*
X164197900Y-106222400D01*
X163970100Y-106222400D01*
X162194865Y-106222400D01*
X162103897Y-106416748D01*
X127418700Y-106416748D01*
X127418700Y-105800252D01*
X162103897Y-105800252D01*
X162194865Y-105994600D01*
X163970100Y-105994600D01*
X163970100Y-104852000D01*
X164197900Y-104852000D01*
X164197900Y-105994600D01*
X165973135Y-105994600D01*
X166064103Y-105800252D01*
X166050442Y-105732889D01*
X165954021Y-105505131D01*
X165815019Y-105300560D01*
X165638778Y-105127038D01*
X165432071Y-104991233D01*
X165202842Y-104898364D01*
X164959900Y-104852000D01*
X164197900Y-104852000D01*
X163970100Y-104852000D01*
X163208100Y-104852000D01*
X162965158Y-104898364D01*
X162735929Y-104991233D01*
X162529222Y-105127038D01*
X162352981Y-105300560D01*
X162213979Y-105505131D01*
X162117558Y-105732889D01*
X162103897Y-105800252D01*
X127418700Y-105800252D01*
X127418700Y-103876748D01*
X162103897Y-103876748D01*
X162117558Y-103944111D01*
X162213979Y-104171869D01*
X162352981Y-104376440D01*
X162529222Y-104549962D01*
X162735929Y-104685767D01*
X162965158Y-104778636D01*
X163208100Y-104825000D01*
X163970100Y-104825000D01*
X163970100Y-103682400D01*
X164197900Y-103682400D01*
X164197900Y-104825000D01*
X164959900Y-104825000D01*
X165202842Y-104778636D01*
X165432071Y-104685767D01*
X165638778Y-104549962D01*
X165815019Y-104376440D01*
X165954021Y-104171869D01*
X166050442Y-103944111D01*
X166064103Y-103876748D01*
X165973135Y-103682400D01*
X164197900Y-103682400D01*
X163970100Y-103682400D01*
X162194865Y-103682400D01*
X162103897Y-103876748D01*
X127418700Y-103876748D01*
X127418700Y-103260252D01*
X162103897Y-103260252D01*
X162194865Y-103454600D01*
X163970100Y-103454600D01*
X163970100Y-102312000D01*
X164197900Y-102312000D01*
X164197900Y-103454600D01*
X165973135Y-103454600D01*
X166064103Y-103260252D01*
X166050442Y-103192889D01*
X165954021Y-102965131D01*
X165815019Y-102760560D01*
X165638778Y-102587038D01*
X165432071Y-102451233D01*
X165202842Y-102358364D01*
X164959900Y-102312000D01*
X164197900Y-102312000D01*
X163970100Y-102312000D01*
X163208100Y-102312000D01*
X162965158Y-102358364D01*
X162735929Y-102451233D01*
X162529222Y-102587038D01*
X162352981Y-102760560D01*
X162213979Y-102965131D01*
X162117558Y-103192889D01*
X162103897Y-103260252D01*
X127418700Y-103260252D01*
X127418700Y-103173779D01*
X128877875Y-103171900D01*
X129001500Y-103048275D01*
X129001500Y-101457800D01*
X129229300Y-101457800D01*
X129229300Y-103048275D01*
X129352925Y-103171900D01*
X131210900Y-103174293D01*
X131307839Y-103164745D01*
X131401053Y-103136469D01*
X131486959Y-103090551D01*
X131562256Y-103028756D01*
X131624051Y-102953459D01*
X131669969Y-102867553D01*
X131698245Y-102774339D01*
X131707793Y-102677400D01*
X131705400Y-101581425D01*
X131581775Y-101457800D01*
X129229300Y-101457800D01*
X129001500Y-101457800D01*
X128981500Y-101457800D01*
X128981500Y-101230000D01*
X129001500Y-101230000D01*
X129001500Y-99639525D01*
X129229300Y-99639525D01*
X129229300Y-101230000D01*
X131581775Y-101230000D01*
X131705400Y-101106375D01*
X131707062Y-100344961D01*
X150116700Y-100344961D01*
X150116700Y-100482239D01*
X150143481Y-100616878D01*
X150196015Y-100743706D01*
X150272282Y-100857848D01*
X150369352Y-100954918D01*
X150483494Y-101031185D01*
X150610322Y-101083719D01*
X150744961Y-101110500D01*
X150882239Y-101110500D01*
X151016878Y-101083719D01*
X151143706Y-101031185D01*
X151147724Y-101028500D01*
X162160709Y-101028500D01*
X162183023Y-101255057D01*
X162249107Y-101472907D01*
X162356422Y-101673679D01*
X162500843Y-101849657D01*
X162676821Y-101994078D01*
X162877593Y-102101393D01*
X163095443Y-102167477D01*
X163265234Y-102184200D01*
X164902766Y-102184200D01*
X165072557Y-102167477D01*
X165290407Y-102101393D01*
X165491179Y-101994078D01*
X165667157Y-101849657D01*
X165811578Y-101673679D01*
X165918893Y-101472907D01*
X165984977Y-101255057D01*
X166007291Y-101028500D01*
X165984977Y-100801943D01*
X165918893Y-100584093D01*
X165811578Y-100383321D01*
X165667157Y-100207343D01*
X165491179Y-100062922D01*
X165290407Y-99955607D01*
X165072557Y-99889523D01*
X164902766Y-99872800D01*
X163265234Y-99872800D01*
X163095443Y-99889523D01*
X162877593Y-99955607D01*
X162676821Y-100062922D01*
X162500843Y-100207343D01*
X162356422Y-100383321D01*
X162249107Y-100584093D01*
X162183023Y-100801943D01*
X162160709Y-101028500D01*
X151147724Y-101028500D01*
X151257848Y-100954918D01*
X151354918Y-100857848D01*
X151431185Y-100743706D01*
X151483719Y-100616878D01*
X151499902Y-100535521D01*
X152002823Y-100032600D01*
X155691985Y-100032600D01*
X155694016Y-100032800D01*
X157622319Y-100032800D01*
X157650400Y-100035566D01*
X157678481Y-100032800D01*
X157678484Y-100032800D01*
X157762473Y-100024528D01*
X157870239Y-99991837D01*
X157969556Y-99938751D01*
X158056609Y-99867309D01*
X158074516Y-99845489D01*
X158859806Y-99060200D01*
X162317147Y-99060200D01*
X162356422Y-99133679D01*
X162500843Y-99309657D01*
X162676821Y-99454078D01*
X162877593Y-99561393D01*
X163095443Y-99627477D01*
X163265234Y-99644200D01*
X164902766Y-99644200D01*
X165072557Y-99627477D01*
X165290407Y-99561393D01*
X165491179Y-99454078D01*
X165667157Y-99309657D01*
X165811578Y-99133679D01*
X165918893Y-98932907D01*
X165984977Y-98715057D01*
X166007291Y-98488500D01*
X165984977Y-98261943D01*
X165918893Y-98044093D01*
X165811578Y-97843321D01*
X165667157Y-97667343D01*
X165491179Y-97522922D01*
X165290407Y-97415607D01*
X165072557Y-97349523D01*
X164902766Y-97332800D01*
X163265234Y-97332800D01*
X163095443Y-97349523D01*
X162877593Y-97415607D01*
X162676821Y-97522922D01*
X162500843Y-97667343D01*
X162356422Y-97843321D01*
X162317147Y-97916800D01*
X158651081Y-97916800D01*
X158622999Y-97914034D01*
X158594918Y-97916800D01*
X158594916Y-97916800D01*
X158510927Y-97925072D01*
X158403161Y-97957763D01*
X158303843Y-98010849D01*
X158248637Y-98056156D01*
X158216791Y-98082291D01*
X158198888Y-98104106D01*
X157413595Y-98889400D01*
X155694016Y-98889400D01*
X155691985Y-98889600D01*
X151794171Y-98889600D01*
X151766099Y-98886835D01*
X151738027Y-98889600D01*
X151738026Y-98889600D01*
X151654066Y-98897869D01*
X151546338Y-98930548D01*
X151447055Y-98983616D01*
X151360033Y-99055033D01*
X151342134Y-99076843D01*
X150691679Y-99727298D01*
X150610322Y-99743481D01*
X150483494Y-99796015D01*
X150369352Y-99872282D01*
X150272282Y-99969352D01*
X150196015Y-100083494D01*
X150143481Y-100210322D01*
X150116700Y-100344961D01*
X131707062Y-100344961D01*
X131707793Y-100010400D01*
X131698245Y-99913461D01*
X131669969Y-99820247D01*
X131624051Y-99734341D01*
X131562256Y-99659044D01*
X131486959Y-99597249D01*
X131401053Y-99551331D01*
X131307839Y-99523055D01*
X131210900Y-99513507D01*
X129352925Y-99515900D01*
X129229300Y-99639525D01*
X129001500Y-99639525D01*
X128877875Y-99515900D01*
X127418700Y-99514021D01*
X127418700Y-99074961D01*
X149164200Y-99074961D01*
X149164200Y-99212239D01*
X149190981Y-99346878D01*
X149243515Y-99473706D01*
X149319782Y-99587848D01*
X149416852Y-99684918D01*
X149530994Y-99761185D01*
X149657822Y-99813719D01*
X149792461Y-99840500D01*
X149929739Y-99840500D01*
X150064378Y-99813719D01*
X150191206Y-99761185D01*
X150305348Y-99684918D01*
X150402418Y-99587848D01*
X150478685Y-99473706D01*
X150531219Y-99346878D01*
X150558000Y-99212239D01*
X150558000Y-99074961D01*
X150535181Y-98960241D01*
X150732823Y-98762600D01*
X155588285Y-98762600D01*
X155590316Y-98762800D01*
X156352319Y-98762800D01*
X156380400Y-98765566D01*
X156408481Y-98762800D01*
X156408484Y-98762800D01*
X156492473Y-98754528D01*
X156600239Y-98721837D01*
X156699556Y-98668751D01*
X156786609Y-98597309D01*
X156804516Y-98575489D01*
X158859806Y-96520200D01*
X162317147Y-96520200D01*
X162356422Y-96593679D01*
X162500843Y-96769657D01*
X162676821Y-96914078D01*
X162877593Y-97021393D01*
X163095443Y-97087477D01*
X163265234Y-97104200D01*
X164902766Y-97104200D01*
X165072557Y-97087477D01*
X165290407Y-97021393D01*
X165491179Y-96914078D01*
X165667157Y-96769657D01*
X165811578Y-96593679D01*
X165918893Y-96392907D01*
X165984977Y-96175057D01*
X166007291Y-95948500D01*
X165984977Y-95721943D01*
X165918893Y-95504093D01*
X165811578Y-95303321D01*
X165667157Y-95127343D01*
X165491179Y-94982922D01*
X165290407Y-94875607D01*
X165072557Y-94809523D01*
X164902766Y-94792800D01*
X163265234Y-94792800D01*
X163095443Y-94809523D01*
X162877593Y-94875607D01*
X162676821Y-94982922D01*
X162500843Y-95127343D01*
X162356422Y-95303321D01*
X162317147Y-95376800D01*
X158651081Y-95376800D01*
X158622999Y-95374034D01*
X158594917Y-95376800D01*
X158594916Y-95376800D01*
X158510927Y-95385072D01*
X158403161Y-95417763D01*
X158303843Y-95470849D01*
X158248637Y-95516156D01*
X158216791Y-95542291D01*
X158198888Y-95564106D01*
X156143595Y-97619400D01*
X155590316Y-97619400D01*
X155588285Y-97619600D01*
X150524174Y-97619600D01*
X150496100Y-97616835D01*
X150468026Y-97619600D01*
X150384066Y-97627869D01*
X150276338Y-97660548D01*
X150177055Y-97713616D01*
X150090033Y-97785033D01*
X150072134Y-97806843D01*
X149476844Y-98402134D01*
X149455034Y-98420033D01*
X149383617Y-98507055D01*
X149330548Y-98606338D01*
X149297869Y-98714066D01*
X149297869Y-98714067D01*
X149295780Y-98735273D01*
X149243515Y-98813494D01*
X149190981Y-98940322D01*
X149164200Y-99074961D01*
X127418700Y-99074961D01*
X127418700Y-93408500D01*
X162160709Y-93408500D01*
X162183023Y-93635057D01*
X162249107Y-93852907D01*
X162356422Y-94053679D01*
X162500843Y-94229657D01*
X162676821Y-94374078D01*
X162877593Y-94481393D01*
X163095443Y-94547477D01*
X163265234Y-94564200D01*
X164902766Y-94564200D01*
X165072557Y-94547477D01*
X165290407Y-94481393D01*
X165491179Y-94374078D01*
X165667157Y-94229657D01*
X165811578Y-94053679D01*
X165918893Y-93852907D01*
X165984977Y-93635057D01*
X166007291Y-93408500D01*
X165984977Y-93181943D01*
X165918893Y-92964093D01*
X165811578Y-92763321D01*
X165667157Y-92587343D01*
X165491179Y-92442922D01*
X165290407Y-92335607D01*
X165072557Y-92269523D01*
X164902766Y-92252800D01*
X163265234Y-92252800D01*
X163095443Y-92269523D01*
X162877593Y-92335607D01*
X162676821Y-92442922D01*
X162500843Y-92587343D01*
X162356422Y-92763321D01*
X162249107Y-92964093D01*
X162183023Y-93181943D01*
X162160709Y-93408500D01*
X127418700Y-93408500D01*
X127418700Y-91020481D01*
X127437547Y-90828261D01*
X128256300Y-90828261D01*
X128256300Y-91171739D01*
X128323309Y-91508619D01*
X128454753Y-91825952D01*
X128645580Y-92111544D01*
X128888456Y-92354420D01*
X129174048Y-92545247D01*
X129491381Y-92676691D01*
X129828261Y-92743700D01*
X130171739Y-92743700D01*
X130508619Y-92676691D01*
X130825952Y-92545247D01*
X131111544Y-92354420D01*
X131354420Y-92111544D01*
X131545247Y-91825952D01*
X131676691Y-91508619D01*
X131743700Y-91171739D01*
X131743700Y-90828261D01*
X167256300Y-90828261D01*
X167256300Y-91171739D01*
X167323309Y-91508619D01*
X167454753Y-91825952D01*
X167645580Y-92111544D01*
X167888456Y-92354420D01*
X168174048Y-92545247D01*
X168491381Y-92676691D01*
X168828261Y-92743700D01*
X169171739Y-92743700D01*
X169508619Y-92676691D01*
X169825952Y-92545247D01*
X170111544Y-92354420D01*
X170354420Y-92111544D01*
X170545247Y-91825952D01*
X170676691Y-91508619D01*
X170743700Y-91171739D01*
X170743700Y-90828261D01*
X170676691Y-90491381D01*
X170545247Y-90174048D01*
X170354420Y-89888456D01*
X170111544Y-89645580D01*
X169825952Y-89454753D01*
X169508619Y-89323309D01*
X169171739Y-89256300D01*
X168828261Y-89256300D01*
X168491381Y-89323309D01*
X168174048Y-89454753D01*
X167888456Y-89645580D01*
X167645580Y-89888456D01*
X167454753Y-90174048D01*
X167323309Y-90491381D01*
X167256300Y-90828261D01*
X131743700Y-90828261D01*
X131676691Y-90491381D01*
X131545247Y-90174048D01*
X131354420Y-89888456D01*
X131111544Y-89645580D01*
X130825952Y-89454753D01*
X130508619Y-89323309D01*
X130171739Y-89256300D01*
X129828261Y-89256300D01*
X129491381Y-89323309D01*
X129174048Y-89454753D01*
X128888456Y-89645580D01*
X128645580Y-89888456D01*
X128454753Y-90174048D01*
X128323309Y-90491381D01*
X128256300Y-90828261D01*
X127437547Y-90828261D01*
X127469831Y-90499012D01*
X127615328Y-90017104D01*
X127851654Y-89572640D01*
X128169809Y-89182544D01*
X128557681Y-88861668D01*
X129000483Y-88622246D01*
X129481364Y-88473388D01*
X130001691Y-88418700D01*
X168979519Y-88418700D01*
X169500988Y-88469831D01*
G04 #@! TA.AperFunction,Conductor*
D16*
G36*
X169500988Y-88469831D02*
G01*
X169982896Y-88615328D01*
X170427360Y-88851654D01*
X170817456Y-89169809D01*
X171138332Y-89557681D01*
X171377754Y-90000483D01*
X171526612Y-90481364D01*
X171581301Y-91001700D01*
X171581300Y-118979519D01*
X171530169Y-119500988D01*
X171384674Y-119982893D01*
X171148349Y-120427357D01*
X170830191Y-120817456D01*
X170442321Y-121138331D01*
X169999517Y-121377754D01*
X169518637Y-121526611D01*
X168998309Y-121581300D01*
X130020481Y-121581300D01*
X129499012Y-121530169D01*
X129017107Y-121384674D01*
X128572643Y-121148349D01*
X128182544Y-120830191D01*
X127861669Y-120442321D01*
X127622246Y-119999517D01*
X127473389Y-119518637D01*
X127418700Y-118998309D01*
X127418700Y-118828261D01*
X128256300Y-118828261D01*
X128256300Y-119171739D01*
X128323309Y-119508619D01*
X128454753Y-119825952D01*
X128645580Y-120111544D01*
X128888456Y-120354420D01*
X129174048Y-120545247D01*
X129491381Y-120676691D01*
X129828261Y-120743700D01*
X130171739Y-120743700D01*
X130508619Y-120676691D01*
X130825952Y-120545247D01*
X131111544Y-120354420D01*
X131354420Y-120111544D01*
X131545247Y-119825952D01*
X131676691Y-119508619D01*
X131743700Y-119171739D01*
X131743700Y-118828261D01*
X167256300Y-118828261D01*
X167256300Y-119171739D01*
X167323309Y-119508619D01*
X167454753Y-119825952D01*
X167645580Y-120111544D01*
X167888456Y-120354420D01*
X168174048Y-120545247D01*
X168491381Y-120676691D01*
X168828261Y-120743700D01*
X169171739Y-120743700D01*
X169508619Y-120676691D01*
X169825952Y-120545247D01*
X170111544Y-120354420D01*
X170354420Y-120111544D01*
X170545247Y-119825952D01*
X170676691Y-119508619D01*
X170743700Y-119171739D01*
X170743700Y-118828261D01*
X170676691Y-118491381D01*
X170545247Y-118174048D01*
X170354420Y-117888456D01*
X170111544Y-117645580D01*
X169825952Y-117454753D01*
X169508619Y-117323309D01*
X169171739Y-117256300D01*
X168828261Y-117256300D01*
X168491381Y-117323309D01*
X168174048Y-117454753D01*
X167888456Y-117645580D01*
X167645580Y-117888456D01*
X167454753Y-118174048D01*
X167323309Y-118491381D01*
X167256300Y-118828261D01*
X131743700Y-118828261D01*
X131676691Y-118491381D01*
X131545247Y-118174048D01*
X131354420Y-117888456D01*
X131111544Y-117645580D01*
X130825952Y-117454753D01*
X130508619Y-117323309D01*
X130171739Y-117256300D01*
X129828261Y-117256300D01*
X129491381Y-117323309D01*
X129174048Y-117454753D01*
X128888456Y-117645580D01*
X128645580Y-117888456D01*
X128454753Y-118174048D01*
X128323309Y-118491381D01*
X128256300Y-118828261D01*
X127418700Y-118828261D01*
X127418700Y-116268500D01*
X162160709Y-116268500D01*
X162183023Y-116495057D01*
X162249107Y-116712907D01*
X162356422Y-116913679D01*
X162500843Y-117089657D01*
X162676821Y-117234078D01*
X162877593Y-117341393D01*
X163095443Y-117407477D01*
X163265234Y-117424200D01*
X164902766Y-117424200D01*
X165072557Y-117407477D01*
X165290407Y-117341393D01*
X165491179Y-117234078D01*
X165667157Y-117089657D01*
X165811578Y-116913679D01*
X165918893Y-116712907D01*
X165984977Y-116495057D01*
X166007291Y-116268500D01*
X165984977Y-116041943D01*
X165918893Y-115824093D01*
X165811578Y-115623321D01*
X165667157Y-115447343D01*
X165491179Y-115302922D01*
X165290407Y-115195607D01*
X165072557Y-115129523D01*
X164902766Y-115112800D01*
X163265234Y-115112800D01*
X163095443Y-115129523D01*
X162877593Y-115195607D01*
X162676821Y-115302922D01*
X162500843Y-115447343D01*
X162356422Y-115623321D01*
X162249107Y-115824093D01*
X162183023Y-116041943D01*
X162160709Y-116268500D01*
X127418700Y-116268500D01*
X127418700Y-113728500D01*
X162160709Y-113728500D01*
X162183023Y-113955057D01*
X162249107Y-114172907D01*
X162356422Y-114373679D01*
X162500843Y-114549657D01*
X162676821Y-114694078D01*
X162877593Y-114801393D01*
X163095443Y-114867477D01*
X163265234Y-114884200D01*
X164902766Y-114884200D01*
X165072557Y-114867477D01*
X165290407Y-114801393D01*
X165491179Y-114694078D01*
X165667157Y-114549657D01*
X165811578Y-114373679D01*
X165918893Y-114172907D01*
X165984977Y-113955057D01*
X166007291Y-113728500D01*
X165984977Y-113501943D01*
X165918893Y-113284093D01*
X165811578Y-113083321D01*
X165667157Y-112907343D01*
X165491179Y-112762922D01*
X165290407Y-112655607D01*
X165072557Y-112589523D01*
X164902766Y-112572800D01*
X163265234Y-112572800D01*
X163095443Y-112589523D01*
X162877593Y-112655607D01*
X162676821Y-112762922D01*
X162500843Y-112907343D01*
X162356422Y-113083321D01*
X162249107Y-113284093D01*
X162183023Y-113501943D01*
X162160709Y-113728500D01*
X127418700Y-113728500D01*
X127418700Y-111188500D01*
X162160709Y-111188500D01*
X162183023Y-111415057D01*
X162249107Y-111632907D01*
X162356422Y-111833679D01*
X162500843Y-112009657D01*
X162676821Y-112154078D01*
X162877593Y-112261393D01*
X163095443Y-112327477D01*
X163265234Y-112344200D01*
X164902766Y-112344200D01*
X165072557Y-112327477D01*
X165290407Y-112261393D01*
X165491179Y-112154078D01*
X165667157Y-112009657D01*
X165811578Y-111833679D01*
X165918893Y-111632907D01*
X165984977Y-111415057D01*
X166007291Y-111188500D01*
X165984977Y-110961943D01*
X165918893Y-110744093D01*
X165811578Y-110543321D01*
X165667157Y-110367343D01*
X165491179Y-110222922D01*
X165290407Y-110115607D01*
X165072557Y-110049523D01*
X164902766Y-110032800D01*
X163265234Y-110032800D01*
X163095443Y-110049523D01*
X162877593Y-110115607D01*
X162676821Y-110222922D01*
X162500843Y-110367343D01*
X162356422Y-110543321D01*
X162249107Y-110744093D01*
X162183023Y-110961943D01*
X162160709Y-111188500D01*
X127418700Y-111188500D01*
X127418700Y-110162979D01*
X128877875Y-110161100D01*
X129001500Y-110037475D01*
X129001500Y-108447000D01*
X129229300Y-108447000D01*
X129229300Y-110037475D01*
X129352925Y-110161100D01*
X131210900Y-110163493D01*
X131307839Y-110153945D01*
X131401053Y-110125669D01*
X131486959Y-110079751D01*
X131562256Y-110017956D01*
X131624051Y-109942659D01*
X131669969Y-109856753D01*
X131698245Y-109763539D01*
X131707793Y-109666600D01*
X131705571Y-108648500D01*
X162160709Y-108648500D01*
X162183023Y-108875057D01*
X162249107Y-109092907D01*
X162356422Y-109293679D01*
X162500843Y-109469657D01*
X162676821Y-109614078D01*
X162877593Y-109721393D01*
X163095443Y-109787477D01*
X163265234Y-109804200D01*
X164902766Y-109804200D01*
X165072557Y-109787477D01*
X165290407Y-109721393D01*
X165491179Y-109614078D01*
X165667157Y-109469657D01*
X165811578Y-109293679D01*
X165918893Y-109092907D01*
X165984977Y-108875057D01*
X166007291Y-108648500D01*
X165984977Y-108421943D01*
X165918893Y-108204093D01*
X165811578Y-108003321D01*
X165667157Y-107827343D01*
X165491179Y-107682922D01*
X165290407Y-107575607D01*
X165072557Y-107509523D01*
X164902766Y-107492800D01*
X163265234Y-107492800D01*
X163095443Y-107509523D01*
X162877593Y-107575607D01*
X162676821Y-107682922D01*
X162500843Y-107827343D01*
X162356422Y-108003321D01*
X162249107Y-108204093D01*
X162183023Y-108421943D01*
X162160709Y-108648500D01*
X131705571Y-108648500D01*
X131705400Y-108570625D01*
X131581775Y-108447000D01*
X129229300Y-108447000D01*
X129001500Y-108447000D01*
X128981500Y-108447000D01*
X128981500Y-108219200D01*
X129001500Y-108219200D01*
X129001500Y-106628725D01*
X129229300Y-106628725D01*
X129229300Y-108219200D01*
X131581775Y-108219200D01*
X131705400Y-108095575D01*
X131707793Y-106999600D01*
X131698245Y-106902661D01*
X131669969Y-106809447D01*
X131624051Y-106723541D01*
X131562256Y-106648244D01*
X131486959Y-106586449D01*
X131401053Y-106540531D01*
X131307839Y-106512255D01*
X131210900Y-106502707D01*
X129352925Y-106505100D01*
X129229300Y-106628725D01*
X129001500Y-106628725D01*
X128877875Y-106505100D01*
X127418700Y-106503221D01*
X127418700Y-106416748D01*
X162103897Y-106416748D01*
X162117558Y-106484111D01*
X162213979Y-106711869D01*
X162352981Y-106916440D01*
X162529222Y-107089962D01*
X162735929Y-107225767D01*
X162965158Y-107318636D01*
X163208100Y-107365000D01*
X163970100Y-107365000D01*
X163970100Y-106222400D01*
X164197900Y-106222400D01*
X164197900Y-107365000D01*
X164959900Y-107365000D01*
X165202842Y-107318636D01*
X165432071Y-107225767D01*
X165638778Y-107089962D01*
X165815019Y-106916440D01*
X165954021Y-106711869D01*
X166050442Y-106484111D01*
X166064103Y-106416748D01*
X165973135Y-106222400D01*
X164197900Y-106222400D01*
X163970100Y-106222400D01*
X162194865Y-106222400D01*
X162103897Y-106416748D01*
X127418700Y-106416748D01*
X127418700Y-105800252D01*
X162103897Y-105800252D01*
X162194865Y-105994600D01*
X163970100Y-105994600D01*
X163970100Y-104852000D01*
X164197900Y-104852000D01*
X164197900Y-105994600D01*
X165973135Y-105994600D01*
X166064103Y-105800252D01*
X166050442Y-105732889D01*
X165954021Y-105505131D01*
X165815019Y-105300560D01*
X165638778Y-105127038D01*
X165432071Y-104991233D01*
X165202842Y-104898364D01*
X164959900Y-104852000D01*
X164197900Y-104852000D01*
X163970100Y-104852000D01*
X163208100Y-104852000D01*
X162965158Y-104898364D01*
X162735929Y-104991233D01*
X162529222Y-105127038D01*
X162352981Y-105300560D01*
X162213979Y-105505131D01*
X162117558Y-105732889D01*
X162103897Y-105800252D01*
X127418700Y-105800252D01*
X127418700Y-103876748D01*
X162103897Y-103876748D01*
X162117558Y-103944111D01*
X162213979Y-104171869D01*
X162352981Y-104376440D01*
X162529222Y-104549962D01*
X162735929Y-104685767D01*
X162965158Y-104778636D01*
X163208100Y-104825000D01*
X163970100Y-104825000D01*
X163970100Y-103682400D01*
X164197900Y-103682400D01*
X164197900Y-104825000D01*
X164959900Y-104825000D01*
X165202842Y-104778636D01*
X165432071Y-104685767D01*
X165638778Y-104549962D01*
X165815019Y-104376440D01*
X165954021Y-104171869D01*
X166050442Y-103944111D01*
X166064103Y-103876748D01*
X165973135Y-103682400D01*
X164197900Y-103682400D01*
X163970100Y-103682400D01*
X162194865Y-103682400D01*
X162103897Y-103876748D01*
X127418700Y-103876748D01*
X127418700Y-103260252D01*
X162103897Y-103260252D01*
X162194865Y-103454600D01*
X163970100Y-103454600D01*
X163970100Y-102312000D01*
X164197900Y-102312000D01*
X164197900Y-103454600D01*
X165973135Y-103454600D01*
X166064103Y-103260252D01*
X166050442Y-103192889D01*
X165954021Y-102965131D01*
X165815019Y-102760560D01*
X165638778Y-102587038D01*
X165432071Y-102451233D01*
X165202842Y-102358364D01*
X164959900Y-102312000D01*
X164197900Y-102312000D01*
X163970100Y-102312000D01*
X163208100Y-102312000D01*
X162965158Y-102358364D01*
X162735929Y-102451233D01*
X162529222Y-102587038D01*
X162352981Y-102760560D01*
X162213979Y-102965131D01*
X162117558Y-103192889D01*
X162103897Y-103260252D01*
X127418700Y-103260252D01*
X127418700Y-103173779D01*
X128877875Y-103171900D01*
X129001500Y-103048275D01*
X129001500Y-101457800D01*
X129229300Y-101457800D01*
X129229300Y-103048275D01*
X129352925Y-103171900D01*
X131210900Y-103174293D01*
X131307839Y-103164745D01*
X131401053Y-103136469D01*
X131486959Y-103090551D01*
X131562256Y-103028756D01*
X131624051Y-102953459D01*
X131669969Y-102867553D01*
X131698245Y-102774339D01*
X131707793Y-102677400D01*
X131705400Y-101581425D01*
X131581775Y-101457800D01*
X129229300Y-101457800D01*
X129001500Y-101457800D01*
X128981500Y-101457800D01*
X128981500Y-101230000D01*
X129001500Y-101230000D01*
X129001500Y-99639525D01*
X129229300Y-99639525D01*
X129229300Y-101230000D01*
X131581775Y-101230000D01*
X131705400Y-101106375D01*
X131707062Y-100344961D01*
X150116700Y-100344961D01*
X150116700Y-100482239D01*
X150143481Y-100616878D01*
X150196015Y-100743706D01*
X150272282Y-100857848D01*
X150369352Y-100954918D01*
X150483494Y-101031185D01*
X150610322Y-101083719D01*
X150744961Y-101110500D01*
X150882239Y-101110500D01*
X151016878Y-101083719D01*
X151143706Y-101031185D01*
X151147724Y-101028500D01*
X162160709Y-101028500D01*
X162183023Y-101255057D01*
X162249107Y-101472907D01*
X162356422Y-101673679D01*
X162500843Y-101849657D01*
X162676821Y-101994078D01*
X162877593Y-102101393D01*
X163095443Y-102167477D01*
X163265234Y-102184200D01*
X164902766Y-102184200D01*
X165072557Y-102167477D01*
X165290407Y-102101393D01*
X165491179Y-101994078D01*
X165667157Y-101849657D01*
X165811578Y-101673679D01*
X165918893Y-101472907D01*
X165984977Y-101255057D01*
X166007291Y-101028500D01*
X165984977Y-100801943D01*
X165918893Y-100584093D01*
X165811578Y-100383321D01*
X165667157Y-100207343D01*
X165491179Y-100062922D01*
X165290407Y-99955607D01*
X165072557Y-99889523D01*
X164902766Y-99872800D01*
X163265234Y-99872800D01*
X163095443Y-99889523D01*
X162877593Y-99955607D01*
X162676821Y-100062922D01*
X162500843Y-100207343D01*
X162356422Y-100383321D01*
X162249107Y-100584093D01*
X162183023Y-100801943D01*
X162160709Y-101028500D01*
X151147724Y-101028500D01*
X151257848Y-100954918D01*
X151354918Y-100857848D01*
X151431185Y-100743706D01*
X151483719Y-100616878D01*
X151499902Y-100535521D01*
X152002823Y-100032600D01*
X155691985Y-100032600D01*
X155694016Y-100032800D01*
X157622319Y-100032800D01*
X157650400Y-100035566D01*
X157678481Y-100032800D01*
X157678484Y-100032800D01*
X157762473Y-100024528D01*
X157870239Y-99991837D01*
X157969556Y-99938751D01*
X158056609Y-99867309D01*
X158074516Y-99845489D01*
X158859806Y-99060200D01*
X162317147Y-99060200D01*
X162356422Y-99133679D01*
X162500843Y-99309657D01*
X162676821Y-99454078D01*
X162877593Y-99561393D01*
X163095443Y-99627477D01*
X163265234Y-99644200D01*
X164902766Y-99644200D01*
X165072557Y-99627477D01*
X165290407Y-99561393D01*
X165491179Y-99454078D01*
X165667157Y-99309657D01*
X165811578Y-99133679D01*
X165918893Y-98932907D01*
X165984977Y-98715057D01*
X166007291Y-98488500D01*
X165984977Y-98261943D01*
X165918893Y-98044093D01*
X165811578Y-97843321D01*
X165667157Y-97667343D01*
X165491179Y-97522922D01*
X165290407Y-97415607D01*
X165072557Y-97349523D01*
X164902766Y-97332800D01*
X163265234Y-97332800D01*
X163095443Y-97349523D01*
X162877593Y-97415607D01*
X162676821Y-97522922D01*
X162500843Y-97667343D01*
X162356422Y-97843321D01*
X162317147Y-97916800D01*
X158651081Y-97916800D01*
X158622999Y-97914034D01*
X158594918Y-97916800D01*
X158594916Y-97916800D01*
X158510927Y-97925072D01*
X158403161Y-97957763D01*
X158303843Y-98010849D01*
X158248637Y-98056156D01*
X158216791Y-98082291D01*
X158198888Y-98104106D01*
X157413595Y-98889400D01*
X155694016Y-98889400D01*
X155691985Y-98889600D01*
X151794171Y-98889600D01*
X151766099Y-98886835D01*
X151738027Y-98889600D01*
X151738026Y-98889600D01*
X151654066Y-98897869D01*
X151546338Y-98930548D01*
X151447055Y-98983616D01*
X151360033Y-99055033D01*
X151342134Y-99076843D01*
X150691679Y-99727298D01*
X150610322Y-99743481D01*
X150483494Y-99796015D01*
X150369352Y-99872282D01*
X150272282Y-99969352D01*
X150196015Y-100083494D01*
X150143481Y-100210322D01*
X150116700Y-100344961D01*
X131707062Y-100344961D01*
X131707793Y-100010400D01*
X131698245Y-99913461D01*
X131669969Y-99820247D01*
X131624051Y-99734341D01*
X131562256Y-99659044D01*
X131486959Y-99597249D01*
X131401053Y-99551331D01*
X131307839Y-99523055D01*
X131210900Y-99513507D01*
X129352925Y-99515900D01*
X129229300Y-99639525D01*
X129001500Y-99639525D01*
X128877875Y-99515900D01*
X127418700Y-99514021D01*
X127418700Y-99074961D01*
X149164200Y-99074961D01*
X149164200Y-99212239D01*
X149190981Y-99346878D01*
X149243515Y-99473706D01*
X149319782Y-99587848D01*
X149416852Y-99684918D01*
X149530994Y-99761185D01*
X149657822Y-99813719D01*
X149792461Y-99840500D01*
X149929739Y-99840500D01*
X150064378Y-99813719D01*
X150191206Y-99761185D01*
X150305348Y-99684918D01*
X150402418Y-99587848D01*
X150478685Y-99473706D01*
X150531219Y-99346878D01*
X150558000Y-99212239D01*
X150558000Y-99074961D01*
X150535181Y-98960241D01*
X150732823Y-98762600D01*
X155588285Y-98762600D01*
X155590316Y-98762800D01*
X156352319Y-98762800D01*
X156380400Y-98765566D01*
X156408481Y-98762800D01*
X156408484Y-98762800D01*
X156492473Y-98754528D01*
X156600239Y-98721837D01*
X156699556Y-98668751D01*
X156786609Y-98597309D01*
X156804516Y-98575489D01*
X158859806Y-96520200D01*
X162317147Y-96520200D01*
X162356422Y-96593679D01*
X162500843Y-96769657D01*
X162676821Y-96914078D01*
X162877593Y-97021393D01*
X163095443Y-97087477D01*
X163265234Y-97104200D01*
X164902766Y-97104200D01*
X165072557Y-97087477D01*
X165290407Y-97021393D01*
X165491179Y-96914078D01*
X165667157Y-96769657D01*
X165811578Y-96593679D01*
X165918893Y-96392907D01*
X165984977Y-96175057D01*
X166007291Y-95948500D01*
X165984977Y-95721943D01*
X165918893Y-95504093D01*
X165811578Y-95303321D01*
X165667157Y-95127343D01*
X165491179Y-94982922D01*
X165290407Y-94875607D01*
X165072557Y-94809523D01*
X164902766Y-94792800D01*
X163265234Y-94792800D01*
X163095443Y-94809523D01*
X162877593Y-94875607D01*
X162676821Y-94982922D01*
X162500843Y-95127343D01*
X162356422Y-95303321D01*
X162317147Y-95376800D01*
X158651081Y-95376800D01*
X158622999Y-95374034D01*
X158594917Y-95376800D01*
X158594916Y-95376800D01*
X158510927Y-95385072D01*
X158403161Y-95417763D01*
X158303843Y-95470849D01*
X158248637Y-95516156D01*
X158216791Y-95542291D01*
X158198888Y-95564106D01*
X156143595Y-97619400D01*
X155590316Y-97619400D01*
X155588285Y-97619600D01*
X150524174Y-97619600D01*
X150496100Y-97616835D01*
X150468026Y-97619600D01*
X150384066Y-97627869D01*
X150276338Y-97660548D01*
X150177055Y-97713616D01*
X150090033Y-97785033D01*
X150072134Y-97806843D01*
X149476844Y-98402134D01*
X149455034Y-98420033D01*
X149383617Y-98507055D01*
X149330548Y-98606338D01*
X149297869Y-98714066D01*
X149297869Y-98714067D01*
X149295780Y-98735273D01*
X149243515Y-98813494D01*
X149190981Y-98940322D01*
X149164200Y-99074961D01*
X127418700Y-99074961D01*
X127418700Y-93408500D01*
X162160709Y-93408500D01*
X162183023Y-93635057D01*
X162249107Y-93852907D01*
X162356422Y-94053679D01*
X162500843Y-94229657D01*
X162676821Y-94374078D01*
X162877593Y-94481393D01*
X163095443Y-94547477D01*
X163265234Y-94564200D01*
X164902766Y-94564200D01*
X165072557Y-94547477D01*
X165290407Y-94481393D01*
X165491179Y-94374078D01*
X165667157Y-94229657D01*
X165811578Y-94053679D01*
X165918893Y-93852907D01*
X165984977Y-93635057D01*
X166007291Y-93408500D01*
X165984977Y-93181943D01*
X165918893Y-92964093D01*
X165811578Y-92763321D01*
X165667157Y-92587343D01*
X165491179Y-92442922D01*
X165290407Y-92335607D01*
X165072557Y-92269523D01*
X164902766Y-92252800D01*
X163265234Y-92252800D01*
X163095443Y-92269523D01*
X162877593Y-92335607D01*
X162676821Y-92442922D01*
X162500843Y-92587343D01*
X162356422Y-92763321D01*
X162249107Y-92964093D01*
X162183023Y-93181943D01*
X162160709Y-93408500D01*
X127418700Y-93408500D01*
X127418700Y-91020481D01*
X127437547Y-90828261D01*
X128256300Y-90828261D01*
X128256300Y-91171739D01*
X128323309Y-91508619D01*
X128454753Y-91825952D01*
X128645580Y-92111544D01*
X128888456Y-92354420D01*
X129174048Y-92545247D01*
X129491381Y-92676691D01*
X129828261Y-92743700D01*
X130171739Y-92743700D01*
X130508619Y-92676691D01*
X130825952Y-92545247D01*
X131111544Y-92354420D01*
X131354420Y-92111544D01*
X131545247Y-91825952D01*
X131676691Y-91508619D01*
X131743700Y-91171739D01*
X131743700Y-90828261D01*
X167256300Y-90828261D01*
X167256300Y-91171739D01*
X167323309Y-91508619D01*
X167454753Y-91825952D01*
X167645580Y-92111544D01*
X167888456Y-92354420D01*
X168174048Y-92545247D01*
X168491381Y-92676691D01*
X168828261Y-92743700D01*
X169171739Y-92743700D01*
X169508619Y-92676691D01*
X169825952Y-92545247D01*
X170111544Y-92354420D01*
X170354420Y-92111544D01*
X170545247Y-91825952D01*
X170676691Y-91508619D01*
X170743700Y-91171739D01*
X170743700Y-90828261D01*
X170676691Y-90491381D01*
X170545247Y-90174048D01*
X170354420Y-89888456D01*
X170111544Y-89645580D01*
X169825952Y-89454753D01*
X169508619Y-89323309D01*
X169171739Y-89256300D01*
X168828261Y-89256300D01*
X168491381Y-89323309D01*
X168174048Y-89454753D01*
X167888456Y-89645580D01*
X167645580Y-89888456D01*
X167454753Y-90174048D01*
X167323309Y-90491381D01*
X167256300Y-90828261D01*
X131743700Y-90828261D01*
X131676691Y-90491381D01*
X131545247Y-90174048D01*
X131354420Y-89888456D01*
X131111544Y-89645580D01*
X130825952Y-89454753D01*
X130508619Y-89323309D01*
X130171739Y-89256300D01*
X129828261Y-89256300D01*
X129491381Y-89323309D01*
X129174048Y-89454753D01*
X128888456Y-89645580D01*
X128645580Y-89888456D01*
X128454753Y-90174048D01*
X128323309Y-90491381D01*
X128256300Y-90828261D01*
X127437547Y-90828261D01*
X127469831Y-90499012D01*
X127615328Y-90017104D01*
X127851654Y-89572640D01*
X128169809Y-89182544D01*
X128557681Y-88861668D01*
X129000483Y-88622246D01*
X129481364Y-88473388D01*
X130001691Y-88418700D01*
X168979519Y-88418700D01*
X169500988Y-88469831D01*
G37*
G04 #@! TD.AperFunction*
M02*
