M48
; DRILL file {KiCad 5.1.10} date Mon Sep 13 14:56:07 2021
; FORMAT={-:-/ absolute / inch / decimal}
; #@! TF.CreationDate,2021-09-13T14:56:07+02:00
; #@! TF.GenerationSoftware,Kicad,Pcbnew,5.1.10
FMAT,2
INCH
T1C0.0079
T2C0.0400
T3C0.1063
%
G90
G05
T1
X5.0625Y-3.9033
X5.0625Y-4.3533
X5.1Y-3.9033
X5.1Y-4.3533
X5.1375Y-3.9033
X5.1375Y-4.3533
X5.175Y-3.9033
X5.175Y-4.3533
X5.2Y-3.9408
X5.2Y-3.9783
X5.2Y-4.0158
X5.2Y-4.0533
X5.2Y-4.2033
X5.2Y-4.2408
X5.2Y-4.2783
X5.2Y-4.3158
X5.25Y-4.1283
X5.2875Y-4.1283
X5.325Y-4.1283
X5.3375Y-3.7658
X5.3375Y-3.8033
X5.3375Y-3.8408
X5.3375Y-3.8783
X5.3375Y-3.9158
X5.3375Y-3.9533
X5.3375Y-3.9908
X5.3375Y-4.2533
X5.3375Y-4.2908
X5.3375Y-4.3283
X5.3375Y-4.3658
X5.3375Y-4.4033
X5.3375Y-4.4408
X5.3625Y-4.1283
X5.4Y-4.1283
X5.4375Y-4.1283
X5.45Y-4.0158
X5.475Y-4.1283
X5.5Y-4.0158
X5.5125Y-4.1283
X5.525Y-3.8283
X5.525Y-3.9158
X5.525Y-3.9533
X5.525Y-4.2533
X5.525Y-4.2908
X5.525Y-4.3283
X5.525Y-4.3658
X5.525Y-4.4033
X5.525Y-4.4408
X5.5375Y-4.0033
X5.55Y-4.1283
X5.575Y-4.0033
X5.5875Y-4.1283
X5.6Y-4.2533
X5.6Y-4.2908
X5.6Y-4.3283
X5.6Y-4.3658
X5.6Y-4.4033
X5.6Y-4.4408
X5.6Y-4.4783
X5.6Y-4.5158
X5.6125Y-4.0033
X5.625Y-3.8375
X5.625Y-3.9
X5.625Y-3.9575
X5.625Y-4.1283
X5.7125Y-3.7783
X5.7125Y-3.8158
X5.7125Y-3.9283
X5.7125Y-3.9783
X5.7125Y-4.0283
X5.7125Y-4.0783
X5.7125Y-4.1783
X5.7125Y-4.2158
X5.7125Y-4.2533
X5.7125Y-4.2908
X5.775Y-3.8033
X5.8125Y-3.9908
X5.8125Y-4.2658
X5.825Y-4.4033
X5.825Y-4.4408
X5.825Y-4.4783
X5.825Y-4.5158
X5.8375Y-4.2408
X5.8625Y-3.8033
X5.8625Y-4.4033
X5.9Y-3.9033
X5.9Y-4.1033
X5.9Y-4.1783
X5.9Y-4.4033
X5.9375Y-3.8033
X5.9375Y-3.9033
X5.9375Y-3.9533
X5.9375Y-4.1408
X5.9375Y-4.4033
X5.9625Y-3.7783
X5.9625Y-3.8283
X5.9625Y-4.2658
X5.975Y-4.1033
X5.975Y-4.1783
X5.975Y-4.4033
X6.0125Y-4.3658
X6.0125Y-4.4033
X6.0375Y-4.0408
X6.075Y-4.0408
X6.1125Y-4.0408
X6.1375Y-3.7408
X6.1375Y-3.7783
X6.1375Y-3.8158
X6.1375Y-3.9783
X6.1375Y-4.0158
X6.175Y-3.7275
X6.2125Y-3.7283
X6.25Y-3.7283
X6.2875Y-3.7283
X6.2875Y-3.8283
X6.325Y-3.7283
X6.325Y-3.8283
X6.385Y-3.7283
X6.385Y-3.8283
X6.385Y-4.4283
X6.5475Y-3.6775
X6.5475Y-3.7304
X6.5475Y-3.7834
X6.5475Y-3.8363
X6.5475Y-3.8893
X6.5475Y-3.9422
X6.5475Y-3.9951
X6.5475Y-4.0481
X6.5475Y-4.101
X6.5475Y-4.154
X6.5475Y-4.2069
X6.5475Y-4.2599
X6.5475Y-4.3128
X6.5475Y-4.3657
X6.5475Y-4.4187
X6.5475Y-4.4716
X6.5475Y-4.5246
X6.5475Y-4.5775
T2
X6.46Y-3.6775
X6.46Y-3.7775
X6.46Y-3.8775
X6.46Y-3.9775
X6.46Y-4.0775
X6.46Y-4.1775
X6.46Y-4.2775
X6.46Y-4.3775
X6.46Y-4.4775
X6.46Y-4.5775
T3
X5.1181Y-3.5827
X5.1181Y-4.685
X6.6535Y-3.5827
X6.6535Y-4.685
T0
M30
